<svg xmlns="http://www.w3.org/2000/svg" xmlns:xlink="http://www.w3.org/1999/xlink" contentStyleType="text/css" data-diagram-type="CLASS" height="459px" preserveAspectRatio="none" style="width:954px;height:459px;background:#FFFFFF;" version="1.1" viewBox="0 0 954 459" width="954px" zoomAndPan="magnify"><title>ERD eSarpra</title><defs/><g><g class="title" data-source-line="1"><text fill="#000000" font-family="sans-serif" font-size="14" font-weight="bold" lengthAdjust="spacing" textLength="99.1416" x="420.4617" y="22.9951">ERD eSarpra</text></g><!--class users--><g class="entity" data-entity="users" data-source-line="4" data-uid="ent0002" id="entity_users"><rect fill="#F1F1F1" height="145.7813" rx="2.5" ry="2.5" style="stroke:#181818;stroke-width:0.5;" width="193.084" x="383.24" y="47.9969"/><ellipse cx="456.617" cy="63.9969" fill="#ADD1B2" rx="11" ry="11" style="stroke:#181818;stroke-width:1;"/><path d="M459.5857,69.6375 Q459.0076,69.9344 458.367,70.075 Q457.7263,70.2312 457.0232,70.2312 Q454.5232,70.2312 453.1951,68.5906 Q451.8826,66.9344 451.8826,63.8094 Q451.8826,60.6844 453.1951,59.0281 Q454.5232,57.3719 457.0232,57.3719 Q457.7263,57.3719 458.367,57.5281 Q459.0232,57.6844 459.5857,57.9812 L459.5857,60.7 Q458.9607,60.1219 458.367,59.8562 Q457.7732,59.575 457.1482,59.575 Q455.8045,59.575 455.117,60.6531 Q454.4295,61.7156 454.4295,63.8094 Q454.4295,65.9031 455.117,66.9812 Q455.8045,68.0437 457.1482,68.0437 Q457.7732,68.0437 458.367,67.7781 Q458.9607,67.4969 459.5857,66.9187 L459.5857,69.6375 Z " fill="#000000"/><text fill="#000000" font-family="sans-serif" font-size="14" lengthAdjust="spacing" textLength="37.8301" x="477.117" y="68.8436">users</text><line style="stroke:#181818;stroke-width:0.5;" x1="384.24" x2="575.324" y1="79.9969" y2="79.9969"/><text fill="#000000" font-family="sans-serif" font-size="14" lengthAdjust="spacing" textLength="49.5469" x="389.24" y="96.992">id : INT</text><text fill="#000000" font-family="sans-serif" font-size="14" lengthAdjust="spacing" textLength="82.0859" x="389.24" y="113.2889">role : ENUM</text><text fill="#000000" font-family="sans-serif" font-size="14" lengthAdjust="spacing" textLength="142.6934" x="389.24" y="129.5857">is_active : BOOLEAN</text><line style="stroke:#181818;stroke-width:0.5;" x1="384.24" x2="575.324" y1="136.8875" y2="136.8875"/><text fill="#000000" font-family="sans-serif" font-size="14" lengthAdjust="spacing" textLength="159.4209" x="389.24" y="153.8826">nama : VARCHAR(100)</text><text fill="#000000" font-family="sans-serif" font-size="14" lengthAdjust="spacing" textLength="181.084" x="389.24" y="170.1795">username : VARCHAR(50)</text><text fill="#000000" font-family="sans-serif" font-size="14" lengthAdjust="spacing" textLength="158.3613" x="389.24" y="186.4764">email : VARCHAR(100)</text></g><!--class kategori--><g class="entity" data-entity="kategori" data-source-line="13" data-uid="ent0003" id="entity_kategori"><rect fill="#F1F1F1" height="96.8906" rx="2.5" ry="2.5" style="stroke:#181818;stroke-width:0.5;" width="236.3076" x="7" y="274.4469"/><ellipse cx="91.9604" cy="290.4469" fill="#ADD1B2" rx="11" ry="11" style="stroke:#181818;stroke-width:1;"/><path d="M94.9292,296.0875 Q94.3511,296.3844 93.7104,296.525 Q93.0698,296.6813 92.3667,296.6813 Q89.8667,296.6813 88.5386,295.0406 Q87.2261,293.3844 87.2261,290.2594 Q87.2261,287.1344 88.5386,285.4781 Q89.8667,283.8219 92.3667,283.8219 Q93.0698,283.8219 93.7104,283.9781 Q94.3667,284.1344 94.9292,284.4313 L94.9292,287.15 Q94.3042,286.5719 93.7104,286.3063 Q93.1167,286.025 92.4917,286.025 Q91.1479,286.025 90.4604,287.1031 Q89.7729,288.1656 89.7729,290.2594 Q89.7729,292.3531 90.4604,293.4313 Q91.1479,294.4938 92.4917,294.4938 Q93.1167,294.4938 93.7104,294.2281 Q94.3042,293.9469 94.9292,293.3688 L94.9292,296.0875 Z " fill="#000000"/><text fill="#000000" font-family="sans-serif" font-size="14" lengthAdjust="spacing" textLength="57.8867" x="112.4604" y="295.2936">kategori</text><line style="stroke:#181818;stroke-width:0.5;" x1="8" x2="242.3076" y1="306.4469" y2="306.4469"/><text fill="#000000" font-family="sans-serif" font-size="14" lengthAdjust="spacing" textLength="49.5469" x="13" y="323.442">id : INT</text><text fill="#000000" font-family="sans-serif" font-size="14" lengthAdjust="spacing" textLength="142.6934" x="13" y="339.7389">is_active : BOOLEAN</text><line style="stroke:#181818;stroke-width:0.5;" x1="8" x2="242.3076" y1="347.0406" y2="347.0406"/><text fill="#000000" font-family="sans-serif" font-size="14" lengthAdjust="spacing" textLength="224.3076" x="13" y="364.0357">nama_kategori : VARCHAR(100)</text></g><!--class alat--><g class="entity" data-entity="alat" data-source-line="19" data-uid="ent0004" id="entity_alat"><rect fill="#F1F1F1" height="145.7813" rx="2.5" ry="2.5" style="stroke:#181818;stroke-width:0.5;" width="204.958" x="377.31" y="249.9969"/><ellipse cx="462.2704" cy="265.9969" fill="#ADD1B2" rx="11" ry="11" style="stroke:#181818;stroke-width:1;"/><path d="M465.2392,271.6375 Q464.6611,271.9344 464.0204,272.075 Q463.3798,272.2313 462.6767,272.2313 Q460.1767,272.2313 458.8486,270.5906 Q457.5361,268.9344 457.5361,265.8094 Q457.5361,262.6844 458.8486,261.0281 Q460.1767,259.3719 462.6767,259.3719 Q463.3798,259.3719 464.0204,259.5281 Q464.6767,259.6844 465.2392,259.9813 L465.2392,262.7 Q464.6142,262.1219 464.0204,261.8563 Q463.4267,261.575 462.8017,261.575 Q461.4579,261.575 460.7704,262.6531 Q460.0829,263.7156 460.0829,265.8094 Q460.0829,267.9031 460.7704,268.9813 Q461.4579,270.0438 462.8017,270.0438 Q463.4267,270.0438 464.0204,269.7781 Q464.6142,269.4969 465.2392,268.9188 L465.2392,271.6375 Z " fill="#000000"/><text fill="#000000" font-family="sans-serif" font-size="14" lengthAdjust="spacing" textLength="26.5371" x="482.7704" y="270.8436">alat</text><line style="stroke:#181818;stroke-width:0.5;" x1="378.31" x2="581.268" y1="281.9969" y2="281.9969"/><text fill="#000000" font-family="sans-serif" font-size="14" lengthAdjust="spacing" textLength="49.5469" x="383.31" y="298.992">id : INT</text><text fill="#000000" font-family="sans-serif" font-size="14" lengthAdjust="spacing" textLength="114.4336" x="383.31" y="315.2889">kategori_id : INT</text><text fill="#000000" font-family="sans-serif" font-size="14" lengthAdjust="spacing" textLength="104.7676" x="383.31" y="331.5857">kondisi : ENUM</text><text fill="#000000" font-family="sans-serif" font-size="14" lengthAdjust="spacing" textLength="98.2803" x="383.31" y="347.8826">status : ENUM</text><text fill="#000000" font-family="sans-serif" font-size="14" lengthAdjust="spacing" textLength="66.2266" x="383.31" y="364.1795">stok : INT</text><line style="stroke:#181818;stroke-width:0.5;" x1="378.31" x2="581.268" y1="371.4813" y2="371.4813"/><text fill="#000000" font-family="sans-serif" font-size="14" lengthAdjust="spacing" textLength="192.958" x="383.31" y="388.4764">nama_alat : VARCHAR(100)</text></g><!--class peminjaman--><g class="entity" data-entity="peminjaman" data-source-line="28" data-uid="ent0005" id="entity_peminjaman"><rect fill="#F1F1F1" height="259.8594" rx="2.5" ry="2.5" style="stroke:#181818;stroke-width:0.5;" width="256.7949" x="690.27" y="192.9569"/><ellipse cx="770.688" cy="208.9569" fill="#ADD1B2" rx="11" ry="11" style="stroke:#181818;stroke-width:1;"/><path d="M773.6567,214.5975 Q773.0786,214.8944 772.438,215.035 Q771.7973,215.1912 771.0942,215.1912 Q768.5942,215.1912 767.2661,213.5506 Q765.9536,211.8944 765.9536,208.7694 Q765.9536,205.6444 767.2661,203.9881 Q768.5942,202.3319 771.0942,202.3319 Q771.7973,202.3319 772.438,202.4881 Q773.0942,202.6444 773.6567,202.9412 L773.6567,205.66 Q773.0317,205.0819 772.438,204.8162 Q771.8442,204.535 771.2192,204.535 Q769.8755,204.535 769.188,205.6131 Q768.5005,206.6756 768.5005,208.7694 Q768.5005,210.8631 769.188,211.9412 Q769.8755,213.0037 771.2192,213.0037 Q771.8442,213.0037 772.438,212.7381 Q773.0317,212.4569 773.6567,211.8787 L773.6567,214.5975 Z " fill="#000000"/><text fill="#000000" font-family="sans-serif" font-size="14" lengthAdjust="spacing" textLength="87.459" x="791.188" y="213.8036">peminjaman</text><line style="stroke:#181818;stroke-width:0.5;" x1="691.27" x2="946.0649" y1="224.9569" y2="224.9569"/><text fill="#000000" font-family="sans-serif" font-size="14" lengthAdjust="spacing" textLength="49.5469" x="696.27" y="241.952">id : INT</text><text fill="#000000" font-family="sans-serif" font-size="14" lengthAdjust="spacing" textLength="87.083" x="696.27" y="258.2489">user_id : INT</text><text fill="#000000" font-family="sans-serif" font-size="14" lengthAdjust="spacing" textLength="83.084" x="696.27" y="274.5457">alat_id : INT</text><text fill="#000000" font-family="sans-serif" font-size="14" lengthAdjust="spacing" textLength="84.5127" x="696.27" y="290.8426">jumlah : INT</text><text fill="#000000" font-family="sans-serif" font-size="14" lengthAdjust="spacing" textLength="159.3115" x="696.27" y="307.1395">tanggal_pinjam : DATE</text><text fill="#000000" font-family="sans-serif" font-size="14" lengthAdjust="spacing" textLength="167.1592" x="696.27" y="323.4364">tanggal_kembali : DATE</text><text fill="#000000" font-family="sans-serif" font-size="14" lengthAdjust="spacing" textLength="211.7637" x="696.27" y="339.7332">tanggal_pengembalian : DATE</text><text fill="#000000" font-family="sans-serif" font-size="14" lengthAdjust="spacing" textLength="98.2803" x="696.27" y="356.0301">status : ENUM</text><text fill="#000000" font-family="sans-serif" font-size="14" lengthAdjust="spacing" textLength="120.4424" x="696.27" y="372.327">denda : DECIMAL</text><text fill="#000000" font-family="sans-serif" font-size="14" lengthAdjust="spacing" textLength="196.3623" x="696.27" y="388.6239">denda_terlambat : DECIMAL</text><text fill="#000000" font-family="sans-serif" font-size="14" lengthAdjust="spacing" textLength="177.7617" x="696.27" y="404.9207">denda_insiden : DECIMAL</text><text fill="#000000" font-family="sans-serif" font-size="14" lengthAdjust="spacing" textLength="211.9756" x="696.27" y="421.2176">kondisi_pengembalian : ENUM</text><text fill="#000000" font-family="sans-serif" font-size="14" lengthAdjust="spacing" textLength="244.7949" x="696.27" y="437.5145">status_pembayaran_denda : ENUM</text><line style="stroke:#181818;stroke-width:0.5;" x1="691.27" x2="946.0649" y1="444.8162" y2="444.8162"/></g><!--class log_aktivitas--><g class="entity" data-entity="log_aktivitas" data-source-line="44" data-uid="ent0006" id="entity_log_aktivitas"><rect fill="#F1F1F1" height="113.1875" rx="2.5" ry="2.5" style="stroke:#181818;stroke-width:0.5;" width="139.4766" x="748.92" y="44.2969"/><ellipse cx="772.7095" cy="60.2969" fill="#ADD1B2" rx="11" ry="11" style="stroke:#181818;stroke-width:1;"/><path d="M775.6783,65.9375 Q775.1001,66.2344 774.4595,66.375 Q773.8189,66.5313 773.1158,66.5313 Q770.6158,66.5313 769.2876,64.8906 Q767.9751,63.2344 767.9751,60.1094 Q767.9751,56.9844 769.2876,55.3281 Q770.6158,53.6719 773.1158,53.6719 Q773.8189,53.6719 774.4595,53.8281 Q775.1158,53.9844 775.6783,54.2813 L775.6783,57 Q775.0533,56.4219 774.4595,56.1563 Q773.8658,55.875 773.2408,55.875 Q771.897,55.875 771.2095,56.9531 Q770.522,58.0156 770.522,60.1094 Q770.522,62.2031 771.2095,63.2813 Q771.897,64.3438 773.2408,64.3438 Q773.8658,64.3438 774.4595,64.0781 Q775.0533,63.7969 775.6783,63.2188 L775.6783,65.9375 Z " fill="#000000"/><text fill="#000000" font-family="sans-serif" font-size="14" lengthAdjust="spacing" textLength="87.9443" x="788.6627" y="65.1436">log_aktivitas</text><line style="stroke:#181818;stroke-width:0.5;" x1="749.92" x2="887.3966" y1="76.2969" y2="76.2969"/><text fill="#000000" font-family="sans-serif" font-size="14" lengthAdjust="spacing" textLength="49.5469" x="754.92" y="93.292">id : INT</text><text fill="#000000" font-family="sans-serif" font-size="14" lengthAdjust="spacing" textLength="87.083" x="754.92" y="109.5889">user_id : INT</text><text fill="#000000" font-family="sans-serif" font-size="14" lengthAdjust="spacing" textLength="108.7598" x="754.92" y="125.8857">aktivitas : TEXT</text><text fill="#000000" font-family="sans-serif" font-size="14" lengthAdjust="spacing" textLength="127.4766" x="754.92" y="142.1826">waktu : DATETIME</text><line style="stroke:#181818;stroke-width:0.5;" x1="749.92" x2="887.3966" y1="149.4844" y2="149.4844"/></g><!--link kategori to alat--><g class="link" data-entity-1="kategori" data-entity-2="alat" data-source-line="51" data-uid="lnk7" id="link_kategori_alat"><path codeLine="51" d="M243.58,322.8869 C286.75,322.8869 335.25,322.8869 376.94,322.8869" fill="none" id="kategori-alat" style="stroke:#181818;stroke-width:1;"/><text fill="#000000" font-family="sans-serif" font-size="13" lengthAdjust="spacing" textLength="72.1157" x="274.31" y="318.9538">kategori_id</text><text fill="#000000" font-family="sans-serif" font-size="13" lengthAdjust="spacing" textLength="8.271" x="251.4316" y="335.4382">1</text><text fill="#000000" font-family="sans-serif" font-size="13" lengthAdjust="spacing" textLength="23.0356" x="346.2584" y="335.4621">0..*</text></g><!--link alat to peminjaman--><g class="link" data-entity-1="alat" data-entity-2="peminjaman" data-source-line="52" data-uid="lnk8" id="link_alat_peminjaman"><path codeLine="52" d="M582.32,322.8869 C616.22,322.8869 654.44,322.8869 690.07,322.8869" fill="none" id="alat-peminjaman" style="stroke:#181818;stroke-width:1;"/><text fill="#000000" font-family="sans-serif" font-size="13" lengthAdjust="spacing" textLength="43.0054" x="614.77" y="318.9538">alat_id</text><text fill="#000000" font-family="sans-serif" font-size="13" lengthAdjust="spacing" textLength="8.271" x="590.1533" y="335.5094">1</text><text fill="#000000" font-family="sans-serif" font-size="13" lengthAdjust="spacing" textLength="23.0356" x="659.4094" y="335.3676">0..*</text></g><!--link users to peminjaman--><g class="link" data-entity-1="users" data-entity-2="peminjaman" data-source-line="53" data-uid="lnk9" id="link_users_peminjaman"><path codeLine="53" d="M576.42,178.2369 C611.73,199.4069 652.32,223.7369 690.01,246.3469" fill="none" id="users-peminjaman" style="stroke:#181818;stroke-width:1;"/><text fill="#000000" font-family="sans-serif" font-size="13" lengthAdjust="spacing" textLength="46.7188" x="613.27" y="199.9538">user_id</text><text fill="#000000" font-family="sans-serif" font-size="13" lengthAdjust="spacing" textLength="8.271" x="584.4504" y="195.4767">1</text><text fill="#000000" font-family="sans-serif" font-size="13" lengthAdjust="spacing" textLength="23.0356" x="659.3461" y="254.6418">0..*</text></g><!--link users to log_aktivitas--><g class="link" data-entity-1="users" data-entity-2="log_aktivitas" data-source-line="54" data-uid="lnk10" id="link_users_log_aktivitas"><path codeLine="54" d="M576.42,115.2069 C631.28,111.9569 698.89,107.9369 748.56,104.9869" fill="none" id="users-log_aktivitas" style="stroke:#181818;stroke-width:1;"/><text fill="#000000" font-family="sans-serif" font-size="13" lengthAdjust="spacing" textLength="46.7188" x="613.27" y="106.9538">user_id</text><text fill="#000000" font-family="sans-serif" font-size="13" lengthAdjust="spacing" textLength="8.271" x="584.4504" y="127.424">1</text><text fill="#000000" font-family="sans-serif" font-size="13" lengthAdjust="spacing" textLength="23.0356" x="717.7844" y="118.1654">0..*</text></g><!--SRC=[XLFBReCm4Bpp5IjERQL4oQ6Nt6Y2r4XvI2cjUaERu187OoFRjAgg_djj0iH0bDwyCyFCUjTegXc1SBS0yeAoaEWnyg512v0qFMf8g2G7JGNtl0D3fQ1KH2huyG1e0ZDORY9pv9YZATw2tVmvsDrD9vDxWrgfOOZ3F5O4oP6oeLuAPhNXvdLjxLMC9ldJGa_RxIeCDjvlqqM6cgH2qckDn2qvIBZfYGnrtw-nYliPbNZWdmcUK4Klbr0QTQdSMcIrKPjRa9poap7b_NGxG3VPXhhrgSmP7jjI8qzJP75HsHbu4KIXWsSatoEZGw8WF3rpfeUMxVUU49xOBI_2-N8Th1earaGoD5_hAnpbYffJXwc7r4_jJCoGXlb6YJnkSYj1EpKcqXWpiqkgKVqxk5OuWoXyjz2NmShwij5o7Lhdzk7uKnz68_0du_633_MkdRVWLL1NvQnnrcpAE_yjDuHrfrU5tIjUj7y0]--></g><style xmlns="http://www.w3.org/1999/xhtml" id="VMst0.7603998519681237">.select-text-inside-a-link{ -moz-user-select: text!important; }</style><script xmlns=""/></svg>