<svg xmlns="http://www.w3.org/2000/svg" xmlns:xlink="http://www.w3.org/1999/xlink" contentStyleType="text/css" data-diagram-type="CLASS" height="527px" preserveAspectRatio="none" style="width:1036px;height:527px;background:#FFFFFF;" version="1.1" viewBox="0 0 1036 527" width="1036px" zoomAndPan="magnify"><title>ERD eSarpra</title><defs/><g><g class="title" data-source-line="1"><text fill="#000000" font-family="sans-serif" font-size="14" font-weight="bold" lengthAdjust="spacing" textLength="99.1416" x="461.9217" y="22.9951">ERD eSarpra</text></g><!--class users--><g class="entity" data-entity="users" data-source-line="4" data-uid="ent0002" id="entity_users"><rect fill="#F1F1F1" height="243.5625" rx="2.5" ry="2.5" style="stroke:#181818;stroke-width:0.5;" width="287.8779" x="377.31" y="44.2969"/><ellipse cx="498.0839" cy="60.2969" fill="#ADD1B2" rx="11" ry="11" style="stroke:#181818;stroke-width:1;"/><path d="M501.0527,65.9375 Q500.4746,66.2344 499.8339,66.375 Q499.1933,66.5313 498.4902,66.5313 Q495.9902,66.5313 494.6621,64.8906 Q493.3496,63.2344 493.3496,60.1094 Q493.3496,56.9844 494.6621,55.3281 Q495.9902,53.6719 498.4902,53.6719 Q499.1933,53.6719 499.8339,53.8281 Q500.4902,53.9844 501.0527,54.2813 L501.0527,57 Q500.4277,56.4219 499.8339,56.1563 Q499.2402,55.875 498.6152,55.875 Q497.2714,55.875 496.5839,56.9531 Q495.8964,58.0156 495.8964,60.1094 Q495.8964,62.2031 496.5839,63.2813 Q497.2714,64.3438 498.6152,64.3438 Q499.2402,64.3438 499.8339,64.0781 Q500.4277,63.7969 501.0527,63.2188 L501.0527,65.9375 Z " fill="#000000"/><text fill="#000000" font-family="sans-serif" font-size="14" lengthAdjust="spacing" textLength="37.8301" x="518.5839" y="65.1436">users</text><line style="stroke:#181818;stroke-width:0.5;" x1="378.31" x2="664.1879" y1="76.2969" y2="76.2969"/><text fill="#000000" font-family="sans-serif" font-size="14" lengthAdjust="spacing" textLength="49.5469" x="383.31" y="93.292">id : INT</text><text fill="#000000" font-family="sans-serif" font-size="14" lengthAdjust="spacing" textLength="82.0859" x="383.31" y="109.5889">role : ENUM</text><text fill="#000000" font-family="sans-serif" font-size="14" lengthAdjust="spacing" textLength="142.6934" x="383.31" y="125.8857">is_active : BOOLEAN</text><text fill="#000000" font-family="sans-serif" font-size="14" lengthAdjust="spacing" textLength="151.334" x="383.31" y="142.1826">last_login : DATETIME</text><text fill="#000000" font-family="sans-serif" font-size="14" lengthAdjust="spacing" textLength="216.8291" x="383.31" y="158.4795">remember_expires : DATETIME</text><text fill="#000000" font-family="sans-serif" font-size="14" lengthAdjust="spacing" textLength="252.793" x="383.31" y="174.7764">reset_password_expires : DATETIME</text><line style="stroke:#181818;stroke-width:0.5;" x1="378.31" x2="664.1879" y1="182.0781" y2="182.0781"/><text fill="#000000" font-family="sans-serif" font-size="14" lengthAdjust="spacing" textLength="159.4209" x="383.31" y="199.0732">nama : VARCHAR(100)</text><text fill="#000000" font-family="sans-serif" font-size="14" lengthAdjust="spacing" textLength="181.084" x="383.31" y="215.3701">username : VARCHAR(50)</text><text fill="#000000" font-family="sans-serif" font-size="14" lengthAdjust="spacing" textLength="158.3613" x="383.31" y="231.667">email : VARCHAR(100)</text><text fill="#000000" font-family="sans-serif" font-size="14" lengthAdjust="spacing" textLength="186.4639" x="383.31" y="247.9639">password : VARCHAR(255)</text><text fill="#000000" font-family="sans-serif" font-size="14" lengthAdjust="spacing" textLength="239.9141" x="383.31" y="264.2607">remember_token : VARCHAR(255)</text><text fill="#000000" font-family="sans-serif" font-size="14" lengthAdjust="spacing" textLength="275.8779" x="383.31" y="280.5576">reset_password_token : VARCHAR(255)</text></g><!--class kategori--><g class="entity" data-entity="kategori" data-source-line="19" data-uid="ent0003" id="entity_kategori"><rect fill="#F1F1F1" height="96.8906" rx="2.5" ry="2.5" style="stroke:#181818;stroke-width:0.5;" width="236.3076" x="7" y="347.6369"/><ellipse cx="91.9604" cy="363.6369" fill="#ADD1B2" rx="11" ry="11" style="stroke:#181818;stroke-width:1;"/><path d="M94.9292,369.2775 Q94.3511,369.5744 93.7104,369.715 Q93.0698,369.8713 92.3667,369.8713 Q89.8667,369.8713 88.5386,368.2306 Q87.2261,366.5744 87.2261,363.4494 Q87.2261,360.3244 88.5386,358.6681 Q89.8667,357.0119 92.3667,357.0119 Q93.0698,357.0119 93.7104,357.1681 Q94.3667,357.3244 94.9292,357.6213 L94.9292,360.34 Q94.3042,359.7619 93.7104,359.4963 Q93.1167,359.215 92.4917,359.215 Q91.1479,359.215 90.4604,360.2931 Q89.7729,361.3556 89.7729,363.4494 Q89.7729,365.5431 90.4604,366.6213 Q91.1479,367.6838 92.4917,367.6838 Q93.1167,367.6838 93.7104,367.4181 Q94.3042,367.1369 94.9292,366.5588 L94.9292,369.2775 Z " fill="#000000"/><text fill="#000000" font-family="sans-serif" font-size="14" lengthAdjust="spacing" textLength="57.8867" x="112.4604" y="368.4836">kategori</text><line style="stroke:#181818;stroke-width:0.5;" x1="8" x2="242.3076" y1="379.6369" y2="379.6369"/><text fill="#000000" font-family="sans-serif" font-size="14" lengthAdjust="spacing" textLength="49.5469" x="13" y="396.632">id : INT</text><text fill="#000000" font-family="sans-serif" font-size="14" lengthAdjust="spacing" textLength="142.6934" x="13" y="412.9289">is_active : BOOLEAN</text><line style="stroke:#181818;stroke-width:0.5;" x1="8" x2="242.3076" y1="420.2306" y2="420.2306"/><text fill="#000000" font-family="sans-serif" font-size="14" lengthAdjust="spacing" textLength="224.3076" x="13" y="437.2257">nama_kategori : VARCHAR(100)</text></g><!--class alat--><g class="entity" data-entity="alat" data-source-line="25" data-uid="ent0004" id="entity_alat"><rect fill="#F1F1F1" height="145.7813" rx="2.5" ry="2.5" style="stroke:#181818;stroke-width:0.5;" width="204.958" x="418.77" y="323.1869"/><ellipse cx="503.7304" cy="339.1869" fill="#ADD1B2" rx="11" ry="11" style="stroke:#181818;stroke-width:1;"/><path d="M506.6992,344.8275 Q506.1211,345.1244 505.4804,345.265 Q504.8398,345.4213 504.1367,345.4213 Q501.6367,345.4213 500.3086,343.7806 Q498.9961,342.1244 498.9961,338.9994 Q498.9961,335.8744 500.3086,334.2181 Q501.6367,332.5619 504.1367,332.5619 Q504.8398,332.5619 505.4804,332.7181 Q506.1367,332.8744 506.6992,333.1713 L506.6992,335.89 Q506.0742,335.3119 505.4804,335.0463 Q504.8867,334.765 504.2617,334.765 Q502.9179,334.765 502.2304,335.8431 Q501.5429,336.9056 501.5429,338.9994 Q501.5429,341.0931 502.2304,342.1713 Q502.9179,343.2338 504.2617,343.2338 Q504.8867,343.2338 505.4804,342.9681 Q506.0742,342.6869 506.6992,342.1088 L506.6992,344.8275 Z " fill="#000000"/><text fill="#000000" font-family="sans-serif" font-size="14" lengthAdjust="spacing" textLength="26.5371" x="524.2304" y="344.0336">alat</text><line style="stroke:#181818;stroke-width:0.5;" x1="419.77" x2="622.728" y1="355.1869" y2="355.1869"/><text fill="#000000" font-family="sans-serif" font-size="14" lengthAdjust="spacing" textLength="49.5469" x="424.77" y="372.182">id : INT</text><text fill="#000000" font-family="sans-serif" font-size="14" lengthAdjust="spacing" textLength="114.4336" x="424.77" y="388.4789">kategori_id : INT</text><text fill="#000000" font-family="sans-serif" font-size="14" lengthAdjust="spacing" textLength="104.7676" x="424.77" y="404.7757">kondisi : ENUM</text><text fill="#000000" font-family="sans-serif" font-size="14" lengthAdjust="spacing" textLength="98.2803" x="424.77" y="421.0726">status : ENUM</text><text fill="#000000" font-family="sans-serif" font-size="14" lengthAdjust="spacing" textLength="66.2266" x="424.77" y="437.3695">stok : INT</text><line style="stroke:#181818;stroke-width:0.5;" x1="419.77" x2="622.728" y1="444.6713" y2="444.6713"/><text fill="#000000" font-family="sans-serif" font-size="14" lengthAdjust="spacing" textLength="192.958" x="424.77" y="461.6664">nama_alat : VARCHAR(100)</text></g><!--class peminjaman--><g class="entity" data-entity="peminjaman" data-source-line="34" data-uid="ent0005" id="entity_peminjaman"><rect fill="#F1F1F1" height="259.8594" rx="2.5" ry="2.5" style="stroke:#181818;stroke-width:0.5;" width="256.7949" x="773.19" y="260.1469"/><ellipse cx="853.608" cy="276.1469" fill="#ADD1B2" rx="11" ry="11" style="stroke:#181818;stroke-width:1;"/><path d="M856.5767,281.7875 Q855.9986,282.0844 855.358,282.225 Q854.7173,282.3812 854.0142,282.3812 Q851.5142,282.3812 850.1861,280.7406 Q848.8736,279.0844 848.8736,275.9594 Q848.8736,272.8344 850.1861,271.1781 Q851.5142,269.5219 854.0142,269.5219 Q854.7173,269.5219 855.358,269.6781 Q856.0142,269.8344 856.5767,270.1312 L856.5767,272.85 Q855.9517,272.2719 855.358,272.0062 Q854.7642,271.725 854.1392,271.725 Q852.7955,271.725 852.108,272.8031 Q851.4205,273.8656 851.4205,275.9594 Q851.4205,278.0531 852.108,279.1312 Q852.7955,280.1937 854.1392,280.1937 Q854.7642,280.1937 855.358,279.9281 Q855.9517,279.6469 856.5767,279.0687 L856.5767,281.7875 Z " fill="#000000"/><text fill="#000000" font-family="sans-serif" font-size="14" lengthAdjust="spacing" textLength="87.459" x="874.108" y="280.9936">peminjaman</text><line style="stroke:#181818;stroke-width:0.5;" x1="774.19" x2="1028.9849" y1="292.1469" y2="292.1469"/><text fill="#000000" font-family="sans-serif" font-size="14" lengthAdjust="spacing" textLength="49.5469" x="779.19" y="309.142">id : INT</text><text fill="#000000" font-family="sans-serif" font-size="14" lengthAdjust="spacing" textLength="87.083" x="779.19" y="325.4389">user_id : INT</text><text fill="#000000" font-family="sans-serif" font-size="14" lengthAdjust="spacing" textLength="83.084" x="779.19" y="341.7357">alat_id : INT</text><text fill="#000000" font-family="sans-serif" font-size="14" lengthAdjust="spacing" textLength="84.5127" x="779.19" y="358.0326">jumlah : INT</text><text fill="#000000" font-family="sans-serif" font-size="14" lengthAdjust="spacing" textLength="159.3115" x="779.19" y="374.3295">tanggal_pinjam : DATE</text><text fill="#000000" font-family="sans-serif" font-size="14" lengthAdjust="spacing" textLength="167.1592" x="779.19" y="390.6264">tanggal_kembali : DATE</text><text fill="#000000" font-family="sans-serif" font-size="14" lengthAdjust="spacing" textLength="211.7637" x="779.19" y="406.9232">tanggal_pengembalian : DATE</text><text fill="#000000" font-family="sans-serif" font-size="14" lengthAdjust="spacing" textLength="98.2803" x="779.19" y="423.2201">status : ENUM</text><text fill="#000000" font-family="sans-serif" font-size="14" lengthAdjust="spacing" textLength="120.4424" x="779.19" y="439.517">denda : DECIMAL</text><text fill="#000000" font-family="sans-serif" font-size="14" lengthAdjust="spacing" textLength="196.3623" x="779.19" y="455.8139">denda_terlambat : DECIMAL</text><text fill="#000000" font-family="sans-serif" font-size="14" lengthAdjust="spacing" textLength="177.7617" x="779.19" y="472.1107">denda_insiden : DECIMAL</text><text fill="#000000" font-family="sans-serif" font-size="14" lengthAdjust="spacing" textLength="211.9756" x="779.19" y="488.4076">kondisi_pengembalian : ENUM</text><text fill="#000000" font-family="sans-serif" font-size="14" lengthAdjust="spacing" textLength="244.7949" x="779.19" y="504.7045">status_pembayaran_denda : ENUM</text><line style="stroke:#181818;stroke-width:0.5;" x1="774.19" x2="1028.9849" y1="512.0062" y2="512.0062"/></g><!--class log_aktivitas--><g class="entity" data-entity="log_aktivitas" data-source-line="50" data-uid="ent0006" id="entity_log_aktivitas"><rect fill="#F1F1F1" height="113.1875" rx="2.5" ry="2.5" style="stroke:#181818;stroke-width:0.5;" width="139.4766" x="831.84" y="109.4869"/><ellipse cx="855.6295" cy="125.4869" fill="#ADD1B2" rx="11" ry="11" style="stroke:#181818;stroke-width:1;"/><path d="M858.5983,131.1275 Q858.0201,131.4244 857.3795,131.565 Q856.7389,131.7213 856.0358,131.7213 Q853.5358,131.7213 852.2076,130.0806 Q850.8951,128.4244 850.8951,125.2994 Q850.8951,122.1744 852.2076,120.5181 Q853.5358,118.8619 856.0358,118.8619 Q856.7389,118.8619 857.3795,119.0181 Q858.0358,119.1744 858.5983,119.4713 L858.5983,122.19 Q857.9733,121.6119 857.3795,121.3463 Q856.7858,121.065 856.1608,121.065 Q854.817,121.065 854.1295,122.1431 Q853.442,123.2056 853.442,125.2994 Q853.442,127.3931 854.1295,128.4713 Q854.817,129.5338 856.1608,129.5338 Q856.7858,129.5338 857.3795,129.2681 Q857.9733,128.9869 858.5983,128.4088 L858.5983,131.1275 Z " fill="#000000"/><text fill="#000000" font-family="sans-serif" font-size="14" lengthAdjust="spacing" textLength="87.9443" x="871.5827" y="130.3336">log_aktivitas</text><line style="stroke:#181818;stroke-width:0.5;" x1="832.84" x2="970.3166" y1="141.4869" y2="141.4869"/><text fill="#000000" font-family="sans-serif" font-size="14" lengthAdjust="spacing" textLength="49.5469" x="837.84" y="158.482">id : INT</text><text fill="#000000" font-family="sans-serif" font-size="14" lengthAdjust="spacing" textLength="87.083" x="837.84" y="174.7789">user_id : INT</text><text fill="#000000" font-family="sans-serif" font-size="14" lengthAdjust="spacing" textLength="108.7598" x="837.84" y="191.0757">aktivitas : TEXT</text><text fill="#000000" font-family="sans-serif" font-size="14" lengthAdjust="spacing" textLength="127.4766" x="837.84" y="207.3726">waktu : DATETIME</text><line style="stroke:#181818;stroke-width:0.5;" x1="832.84" x2="970.3166" y1="214.6744" y2="214.6744"/></g><!--link kategori to alat--><g class="link" data-entity-1="kategori" data-entity-2="alat" data-source-line="57" data-uid="lnk7" id="link_kategori_alat"><path codeLine="57" d="M243.59,396.0769 C299.17,396.0769 364.91,396.0769 418.35,396.0769" fill="none" id="kategori-alat" style="stroke:#181818;stroke-width:1;"/><text fill="#000000" font-family="sans-serif" font-size="13" lengthAdjust="spacing" textLength="72.1157" x="274.31" y="392.1438">kategori_id</text><text fill="#000000" font-family="sans-serif" font-size="13" lengthAdjust="spacing" textLength="8.271" x="251.4422" y="408.6282">1</text><text fill="#000000" font-family="sans-serif" font-size="13" lengthAdjust="spacing" textLength="23.0356" x="387.665" y="408.6521">0..*</text></g><!--link alat to peminjaman--><g class="link" data-entity-1="alat" data-entity-2="peminjaman" data-source-line="58" data-uid="lnk8" id="link_alat_peminjaman"><path codeLine="58" d="M624.13,394.4569 C669.87,393.7369 724.34,392.8769 772.78,392.1069" fill="none" id="alat-peminjaman" style="stroke:#181818;stroke-width:1;"/><text fill="#000000" font-family="sans-serif" font-size="13" lengthAdjust="spacing" textLength="43.0054" x="697.69" y="388.1438">alat_id</text><text fill="#000000" font-family="sans-serif" font-size="13" lengthAdjust="spacing" textLength="8.271" x="631.6546" y="406.9418">1</text><text fill="#000000" font-family="sans-serif" font-size="13" lengthAdjust="spacing" textLength="23.0356" x="742.1079" y="404.6986">0..*</text></g><!--link users to peminjaman--><g class="link" data-entity-1="users" data-entity-2="peminjaman" data-source-line="59" data-uid="lnk9" id="link_users_peminjaman"><path codeLine="59" d="M665.55,250.9169 C700.79,271.7869 738.29,293.9869 772.75,314.3869" fill="none" id="users-peminjaman" style="stroke:#181818;stroke-width:1;"/><text fill="#000000" font-family="sans-serif" font-size="13" lengthAdjust="spacing" textLength="46.7188" x="696.19" y="268.1438">user_id</text><text fill="#000000" font-family="sans-serif" font-size="13" lengthAdjust="spacing" textLength="8.271" x="673.2038" y="267.7484">1</text><text fill="#000000" font-family="sans-serif" font-size="13" lengthAdjust="spacing" textLength="23.0356" x="742.0763" y="322.7283">0..*</text></g><!--link users to log_aktivitas--><g class="link" data-entity-1="users" data-entity-2="log_aktivitas" data-source-line="60" data-uid="lnk10" id="link_users_log_aktivitas"><path codeLine="60" d="M665.55,166.0769 C722.44,166.0769 785.21,166.0769 831.57,166.0769" fill="none" id="users-log_aktivitas" style="stroke:#181818;stroke-width:1;"/><text fill="#000000" font-family="sans-serif" font-size="13" lengthAdjust="spacing" textLength="46.7188" x="696.19" y="162.1438">user_id</text><text fill="#000000" font-family="sans-serif" font-size="13" lengthAdjust="spacing" textLength="8.271" x="673.2038" y="178.5338">1</text><text fill="#000000" font-family="sans-serif" font-size="13" lengthAdjust="spacing" textLength="23.0356" x="800.8029" y="178.8646">0..*</text></g><!--SRC=[XLFBJiCm4BpdAwoU00bKa7hfBT18LA95AWLninQo11F7Zkmj3o7-dNL8qZGDS8jdnhFhsGqfqYYIrKpW3RZIGQJnYGHPuLJsJ29L3Xz9MHD5Zngy5nkFpelFI0YLYgcOBzVyQQ00Fjp5gulBU7LmEXuVCXgap627cLG45g3qlhva_pVhqWvpDfa4nbaTN9BbxI8KzXAufzS0dLzVNoNnab7kZgIscJ8Cp-9rifulad0N2omUq4coEPe1xuR7zv8Vw_ktFP9iEllTOqSruFJLv9S3OMQT6efGjkHUDaDlRZr10_Nz6YlPhr69z_npQrBbrJPaJq0RtptRl3PgwvPOAFF2fgPVFOo-MpaKxPvVDeM6v_P8OB8Cj2mhkpgt3fxpX42hVQ94a_rmOBPil_SKJHhsSvPSp1VnLOD8GgU1RzC0funNQJNhBLE7rA-wanYJp7o00oERkfMWJOrtL4BEirG4_j_WMk5Kh9Fx0BqnjkdjLhiuezEHE3uMe_79oT58rBFkx49KGRkgpXYdpQIYd__y3s7TwQ1mzubRxJS0]--></g></svg>