<svg xmlns="http://www.w3.org/2000/svg" xmlns:xlink="http://www.w3.org/1999/xlink" contentStyleType="text/css" data-diagram-type="ACTIVITY" height="759px" preserveAspectRatio="none" style="width:895px;height:759px;background:#FFFFFF;" version="1.1" viewBox="0 0 895 759" width="895px" zoomAndPan="magnify"><title>Flowchart - Proses Login (eSarpra)</title><defs/><g><g class="title" data-source-line="1"><text fill="#000000" font-family="sans-serif" font-size="14" font-weight="bold" lengthAdjust="spacing" textLength="274.9004" x="308.6016" y="32.9951">Flowchart - Proses Login (eSarpra)</text></g><ellipse cx="569.0841" cy="57.2969" fill="#222222" rx="10" ry="10" style="stroke:#222222;stroke-width:1;"/><rect fill="#F1F1F1" height="47.9375" rx="12.5" ry="12.5" style="stroke:#181818;stroke-width:0.5;" width="154.373" x="491.8976" y="87.2969"/><text fill="#000000" font-family="sans-serif" font-size="12" lengthAdjust="spacing" textLength="78.3809" x="501.8976" y="108.4355">User mengisi</text><text fill="#000000" font-family="sans-serif" font-size="12" lengthAdjust="spacing" textLength="134.373" x="501.8976" y="122.4043">username &amp; password</text><rect fill="#F1F1F1" height="33.9688" rx="12.5" ry="12.5" style="stroke:#181818;stroke-width:0.5;" width="88.7188" x="524.7247" y="155.2344"/><text fill="#000000" font-family="sans-serif" font-size="12" lengthAdjust="spacing" textLength="68.7188" x="534.7247" y="176.373">POST /login</text><polygon fill="#F1F1F1" points="522.4362,209.2031,615.7321,209.2031,627.7321,221.2031,615.7321,233.2031,522.4362,233.2031,510.4362,221.2031,522.4362,209.2031" style="stroke:#181818;stroke-width:0.5;"/><text fill="#000000" font-family="sans-serif" font-size="11" lengthAdjust="spacing" textLength="93.2959" x="522.4362" y="225.0112">User ditemukan?</text><text fill="#000000" font-family="sans-serif" font-size="11" lengthAdjust="spacing" textLength="13.46" x="496.9762" y="218.6089">Ya</text><text fill="#000000" font-family="sans-serif" font-size="11" lengthAdjust="spacing" textLength="29.8687" x="627.7321" y="218.6089">Tidak</text><rect fill="#F1F1F1" height="47.9375" rx="12.5" ry="12.5" style="stroke:#181818;stroke-width:0.5;" width="127.7832" x="300.1545" y="243.2031"/><text fill="#000000" font-family="sans-serif" font-size="12" lengthAdjust="spacing" textLength="107.7832" x="310.1545" y="264.3418">Validasi password</text><text fill="#000000" font-family="sans-serif" font-size="12" lengthAdjust="spacing" textLength="104.666" x="310.1545" y="278.3105">(bcrypt compare)</text><polygon fill="#F1F1F1" points="317.3525,311.1406,410.7397,311.1406,422.7397,323.1406,410.7397,335.1406,317.3525,335.1406,305.3525,323.1406,317.3525,311.1406" style="stroke:#181818;stroke-width:0.5;"/><text fill="#000000" font-family="sans-serif" font-size="11" lengthAdjust="spacing" textLength="93.3872" x="317.3525" y="326.9487">Password benar?</text><text fill="#000000" font-family="sans-serif" font-size="11" lengthAdjust="spacing" textLength="13.46" x="291.8926" y="320.5464">Ya</text><text fill="#000000" font-family="sans-serif" font-size="11" lengthAdjust="spacing" textLength="29.8687" x="422.7397" y="320.5464">Tidak</text><rect fill="#F1F1F1" height="47.9375" rx="12.5" ry="12.5" style="stroke:#181818;stroke-width:0.5;" width="126.8867" x="140.4897" y="345.1406"/><text fill="#000000" font-family="sans-serif" font-size="12" lengthAdjust="spacing" textLength="67.9395" x="150.4897" y="366.2793">Set session</text><text fill="#000000" font-family="sans-serif" font-size="12" lengthAdjust="spacing" textLength="106.8867" x="150.4897" y="380.248">userId &amp; userRole</text><rect fill="#F1F1F1" height="33.9688" rx="12.5" ry="12.5" style="stroke:#181818;stroke-width:0.5;" width="124.1504" x="141.8579" y="413.0781"/><text fill="#000000" font-family="sans-serif" font-size="12" lengthAdjust="spacing" textLength="104.1504" x="151.8579" y="434.2168">Update last_login</text><polygon fill="#F1F1F1" points="160.0835,467.0469,247.7827,467.0469,259.7827,479.0469,247.7827,491.0469,160.0835,491.0469,148.0835,479.0469,160.0835,467.0469" style="stroke:#181818;stroke-width:0.5;"/><text fill="#000000" font-family="sans-serif" font-size="11" lengthAdjust="spacing" textLength="87.6992" x="160.0835" y="482.855">Remember me?</text><text fill="#000000" font-family="sans-serif" font-size="11" lengthAdjust="spacing" textLength="13.46" x="134.6235" y="476.4526">Ya</text><text fill="#000000" font-family="sans-serif" font-size="11" lengthAdjust="spacing" textLength="29.8687" x="259.7827" y="476.4526">Tidak</text><rect fill="#F1F1F1" height="47.9375" rx="12.5" ry="12.5" style="stroke:#181818;stroke-width:0.5;" width="189.2773" x="11" y="501.0469"/><text fill="#000000" font-family="sans-serif" font-size="12" lengthAdjust="spacing" textLength="164.7129" x="21" y="522.1855">Generate remember token;</text><text fill="#000000" font-family="sans-serif" font-size="12" lengthAdjust="spacing" textLength="169.2773" x="21" y="536.1543">Set cookie remember_token</text><rect fill="#F1F1F1" height="33.9688" rx="12.5" ry="12.5" style="stroke:#181818;stroke-width:0.5;" width="163.9004" x="220.2773" y="501.0469"/><text fill="#000000" font-family="sans-serif" font-size="12" lengthAdjust="spacing" textLength="143.9004" x="230.2773" y="522.1855">Lewati remember token</text><polygon fill="#F1F1F1" points="203.9331,554.9844,215.9331,566.9844,203.9331,578.9844,191.9331,566.9844,203.9331,554.9844" style="stroke:#181818;stroke-width:0.5;"/><rect fill="#F1F1F1" height="47.9375" rx="12.5" ry="12.5" style="stroke:#181818;stroke-width:0.5;" width="183.5879" x="112.1392" y="598.9844"/><text fill="#000000" font-family="sans-serif" font-size="12" lengthAdjust="spacing" textLength="119.0918" x="122.1392" y="620.123">Redirect sesuai role</text><text fill="#000000" font-family="sans-serif" font-size="12" lengthAdjust="spacing" textLength="163.5879" x="122.1392" y="634.0918">(admin/petugas/peminjam)</text><rect fill="#F1F1F1" height="47.9375" rx="12.5" ry="12.5" style="stroke:#181818;stroke-width:0.5;" width="219.9629" x="414.1777" y="345.1406"/><text fill="#000000" font-family="sans-serif" font-size="12" lengthAdjust="spacing" textLength="64.7871" x="424.1777" y="366.2793">Flash error</text><text fill="#000000" font-family="sans-serif" font-size="12" lengthAdjust="spacing" textLength="199.9629" x="424.1777" y="380.248">"Username atau password salah"</text><rect fill="#F1F1F1" height="33.9688" rx="12.5" ry="12.5" style="stroke:#181818;stroke-width:0.5;" width="107.3809" x="470.4688" y="413.0781"/><text fill="#000000" font-family="sans-serif" font-size="12" lengthAdjust="spacing" textLength="87.3809" x="480.4688" y="434.2168">Redirect /login</text><polygon fill="#F1F1F1" points="364.0461,652.9219,376.0461,664.9219,364.0461,676.9219,352.0461,664.9219,364.0461,652.9219" style="stroke:#181818;stroke-width:0.5;"/><rect fill="#F1F1F1" height="47.9375" rx="12.5" ry="12.5" style="stroke:#181818;stroke-width:0.5;" width="219.9629" x="664.1406" y="243.2031"/><text fill="#000000" font-family="sans-serif" font-size="12" lengthAdjust="spacing" textLength="64.7871" x="674.1406" y="264.3418">Flash error</text><text fill="#000000" font-family="sans-serif" font-size="12" lengthAdjust="spacing" textLength="199.9629" x="674.1406" y="278.3105">"Username atau password salah"</text><rect fill="#F1F1F1" height="33.9688" rx="12.5" ry="12.5" style="stroke:#181818;stroke-width:0.5;" width="107.3809" x="720.4316" y="311.1406"/><text fill="#000000" font-family="sans-serif" font-size="12" lengthAdjust="spacing" textLength="87.3809" x="730.4316" y="332.2793">Redirect /login</text><polygon fill="#F1F1F1" points="569.0841,682.9219,581.0841,694.9219,569.0841,706.9219,557.0841,694.9219,569.0841,682.9219" style="stroke:#181818;stroke-width:0.5;"/><ellipse cx="569.0841" cy="737.9219" fill="none" rx="11" ry="11" style="stroke:#222222;stroke-width:1;"/><ellipse cx="569.0841" cy="737.9219" fill="#222222" rx="6" ry="6" style="stroke:#222222;stroke-width:1;"/><line style="stroke:#181818;stroke-width:1;" x1="569.0841" x2="569.0841" y1="67.2969" y2="87.2969"/><polygon fill="#181818" points="565.0841,77.2969,569.0841,87.2969,573.0841,77.2969,569.0841,81.2969" style="stroke:#181818;stroke-width:1;"/><line style="stroke:#181818;stroke-width:1;" x1="569.0841" x2="569.0841" y1="135.2344" y2="155.2344"/><polygon fill="#181818" points="565.0841,145.2344,569.0841,155.2344,573.0841,145.2344,569.0841,149.2344" style="stroke:#181818;stroke-width:1;"/><line style="stroke:#181818;stroke-width:1;" x1="203.9331" x2="203.9331" y1="393.0781" y2="413.0781"/><polygon fill="#181818" points="199.9331,403.0781,203.9331,413.0781,207.9331,403.0781,203.9331,407.0781" style="stroke:#181818;stroke-width:1;"/><line style="stroke:#181818;stroke-width:1;" x1="148.0835" x2="105.6387" y1="479.0469" y2="479.0469"/><line style="stroke:#181818;stroke-width:1;" x1="105.6387" x2="105.6387" y1="479.0469" y2="501.0469"/><polygon fill="#181818" points="101.6387,491.0469,105.6387,501.0469,109.6387,491.0469,105.6387,495.0469" style="stroke:#181818;stroke-width:1;"/><line style="stroke:#181818;stroke-width:1;" x1="259.7827" x2="302.2275" y1="479.0469" y2="479.0469"/><line style="stroke:#181818;stroke-width:1;" x1="302.2275" x2="302.2275" y1="479.0469" y2="501.0469"/><polygon fill="#181818" points="298.2275,491.0469,302.2275,501.0469,306.2275,491.0469,302.2275,495.0469" style="stroke:#181818;stroke-width:1;"/><line style="stroke:#181818;stroke-width:1;" x1="105.6387" x2="105.6387" y1="548.9844" y2="566.9844"/><line style="stroke:#181818;stroke-width:1;" x1="105.6387" x2="191.9331" y1="566.9844" y2="566.9844"/><polygon fill="#181818" points="181.9331,562.9844,191.9331,566.9844,181.9331,570.9844,185.9331,566.9844" style="stroke:#181818;stroke-width:1;"/><line style="stroke:#181818;stroke-width:1;" x1="302.2275" x2="302.2275" y1="535.0156" y2="566.9844"/><line style="stroke:#181818;stroke-width:1;" x1="302.2275" x2="215.9331" y1="566.9844" y2="566.9844"/><polygon fill="#181818" points="225.9331,562.9844,215.9331,566.9844,225.9331,570.9844,221.9331,566.9844" style="stroke:#181818;stroke-width:1;"/><line style="stroke:#181818;stroke-width:1;" x1="203.9331" x2="203.9331" y1="447.0469" y2="467.0469"/><polygon fill="#181818" points="199.9331,457.0469,203.9331,467.0469,207.9331,457.0469,203.9331,461.0469" style="stroke:#181818;stroke-width:1;"/><line style="stroke:#181818;stroke-width:1;" x1="203.9331" x2="203.9331" y1="578.9844" y2="598.9844"/><polygon fill="#181818" points="199.9331,588.9844,203.9331,598.9844,207.9331,588.9844,203.9331,592.9844" style="stroke:#181818;stroke-width:1;"/><line style="stroke:#181818;stroke-width:1;" x1="524.1592" x2="524.1592" y1="393.0781" y2="413.0781"/><polygon fill="#181818" points="520.1592,403.0781,524.1592,413.0781,528.1592,403.0781,524.1592,407.0781" style="stroke:#181818;stroke-width:1;"/><line style="stroke:#181818;stroke-width:1;" x1="305.3525" x2="203.9331" y1="323.1406" y2="323.1406"/><line style="stroke:#181818;stroke-width:1;" x1="203.9331" x2="203.9331" y1="323.1406" y2="345.1406"/><polygon fill="#181818" points="199.9331,335.1406,203.9331,345.1406,207.9331,335.1406,203.9331,339.1406" style="stroke:#181818;stroke-width:1;"/><line style="stroke:#181818;stroke-width:1;" x1="422.7397" x2="524.1592" y1="323.1406" y2="323.1406"/><line style="stroke:#181818;stroke-width:1;" x1="524.1592" x2="524.1592" y1="323.1406" y2="345.1406"/><polygon fill="#181818" points="520.1592,335.1406,524.1592,345.1406,528.1592,335.1406,524.1592,339.1406" style="stroke:#181818;stroke-width:1;"/><line style="stroke:#181818;stroke-width:1;" x1="203.9331" x2="203.9331" y1="646.9219" y2="664.9219"/><line style="stroke:#181818;stroke-width:1;" x1="203.9331" x2="352.0461" y1="664.9219" y2="664.9219"/><polygon fill="#181818" points="342.0461,660.9219,352.0461,664.9219,342.0461,668.9219,346.0461,664.9219" style="stroke:#181818;stroke-width:1;"/><line style="stroke:#181818;stroke-width:1;" x1="524.1592" x2="524.1592" y1="447.0469" y2="664.9219"/><line style="stroke:#181818;stroke-width:1;" x1="524.1592" x2="376.0461" y1="664.9219" y2="664.9219"/><polygon fill="#181818" points="386.0461,660.9219,376.0461,664.9219,386.0461,668.9219,382.0461,664.9219" style="stroke:#181818;stroke-width:1;"/><line style="stroke:#181818;stroke-width:1;" x1="364.0461" x2="364.0461" y1="291.1406" y2="311.1406"/><polygon fill="#181818" points="360.0461,301.1406,364.0461,311.1406,368.0461,301.1406,364.0461,305.1406" style="stroke:#181818;stroke-width:1;"/><line style="stroke:#181818;stroke-width:1;" x1="774.1221" x2="774.1221" y1="291.1406" y2="311.1406"/><polygon fill="#181818" points="770.1221,301.1406,774.1221,311.1406,778.1221,301.1406,774.1221,305.1406" style="stroke:#181818;stroke-width:1;"/><line style="stroke:#181818;stroke-width:1;" x1="510.4362" x2="364.0461" y1="221.2031" y2="221.2031"/><line style="stroke:#181818;stroke-width:1;" x1="364.0461" x2="364.0461" y1="221.2031" y2="243.2031"/><polygon fill="#181818" points="360.0461,233.2031,364.0461,243.2031,368.0461,233.2031,364.0461,237.2031" style="stroke:#181818;stroke-width:1;"/><line style="stroke:#181818;stroke-width:1;" x1="627.7321" x2="774.1221" y1="221.2031" y2="221.2031"/><line style="stroke:#181818;stroke-width:1;" x1="774.1221" x2="774.1221" y1="221.2031" y2="243.2031"/><polygon fill="#181818" points="770.1221,233.2031,774.1221,243.2031,778.1221,233.2031,774.1221,237.2031" style="stroke:#181818;stroke-width:1;"/><line style="stroke:#181818;stroke-width:1;" x1="364.0461" x2="364.0461" y1="676.9219" y2="694.9219"/><line style="stroke:#181818;stroke-width:1;" x1="364.0461" x2="557.0841" y1="694.9219" y2="694.9219"/><polygon fill="#181818" points="547.0841,690.9219,557.0841,694.9219,547.0841,698.9219,551.0841,694.9219" style="stroke:#181818;stroke-width:1;"/><line style="stroke:#181818;stroke-width:1;" x1="774.1221" x2="774.1221" y1="345.1094" y2="694.9219"/><line style="stroke:#181818;stroke-width:1;" x1="774.1221" x2="581.0841" y1="694.9219" y2="694.9219"/><polygon fill="#181818" points="591.0841,690.9219,581.0841,694.9219,591.0841,698.9219,587.0841,694.9219" style="stroke:#181818;stroke-width:1;"/><line style="stroke:#181818;stroke-width:1;" x1="569.0841" x2="569.0841" y1="189.2031" y2="209.2031"/><polygon fill="#181818" points="565.0841,199.2031,569.0841,209.2031,573.0841,199.2031,569.0841,203.2031" style="stroke:#181818;stroke-width:1;"/><line style="stroke:#181818;stroke-width:1;" x1="569.0841" x2="569.0841" y1="706.9219" y2="726.9219"/><polygon fill="#181818" points="565.0841,716.9219,569.0841,726.9219,573.0841,716.9219,569.0841,720.9219" style="stroke:#181818;stroke-width:1;"/><!--SRC=[bP9DQuD048Rl_eeXXs8E9NSzz9PIA3Jaer0GmiITnAtx8RCheV- -evjOCAUUT7VUUUPzHwEEXc1j_BLka2CymuPze03l_g8TvBH3xXYNMHQYrBFY48Z1ahlee2lNoycX9NY23aEuUbPbLcm-TdjOcO5GPfa-GpvsAHt9zYswboN4XeJ-9M20uXEDLXZqnAXSVghvfujGUziXqx8KtG3Qt1Hm8eSy0mbgHn74Vj3U9NTlIhmDBrjlg4oYGwSm4XWCyNXpETmF_2rPigSnuWDSEb_94G-zVDT5tv8hApSChhrlzL_jc6fZBvb0aEybPZl1tkcAKSzHIUwKFYUpMrAQgHvZzIXooI7xGMMrMtKK-mi6UShf6-sufuTPnLgYDa3CdYktEDm_6aRifvr3G8FDefnDNKqBIfvcyF-Y7y49Ax-Nxtu1]--></g><script xmlns=""/></svg>