<svg xmlns="http://www.w3.org/2000/svg" xmlns:xlink="http://www.w3.org/1999/xlink" contentStyleType="text/css" data-diagram-type="ACTIVITY" height="1003px" preserveAspectRatio="none" style="width:714px;height:1003px;background:#FFFFFF;" version="1.1" viewBox="0 0 714 1003" width="714px" zoomAndPan="magnify"><title>Flowchart - Pengajuan Peminjaman Alat (eSarpra)</title><defs/><g><g class="title" data-source-line="1"><text fill="#000000" font-family="sans-serif" font-size="14" font-weight="bold" lengthAdjust="spacing" textLength="396.0059" x="157.5742" y="32.9951">Flowchart - Pengajuan Peminjaman Alat (eSarpra)</text></g><ellipse cx="486.7123" cy="57.2969" fill="#222222" rx="10" ry="10" style="stroke:#222222;stroke-width:1;"/><rect fill="#F1F1F1" height="47.9375" rx="12.5" ry="12.5" style="stroke:#181818;stroke-width:0.5;" width="158.3691" x="407.5277" y="87.2969"/><text fill="#000000" font-family="sans-serif" font-size="12" lengthAdjust="spacing" textLength="138.3691" x="417.5277" y="108.4355">Peminjam memilih alat</text><text fill="#000000" font-family="sans-serif" font-size="12" lengthAdjust="spacing" textLength="116.6543" x="417.5277" y="122.4043">pada halaman /alat</text><rect fill="#F1F1F1" height="33.9688" rx="12.5" ry="12.5" style="stroke:#181818;stroke-width:0.5;" width="190.3145" x="391.5551" y="155.2344"/><text fill="#000000" font-family="sans-serif" font-size="12" lengthAdjust="spacing" textLength="170.3145" x="401.5551" y="176.373">GET /peminjaman/ajukan/:id</text><rect fill="#F1F1F1" height="47.9375" rx="12.5" ry="12.5" style="stroke:#181818;stroke-width:0.5;" width="171.1602" x="401.1322" y="209.2031"/><text fill="#000000" font-family="sans-serif" font-size="12" lengthAdjust="spacing" textLength="151.1602" x="411.1322" y="230.3418">Service cek ketersediaan</text><text fill="#000000" font-family="sans-serif" font-size="12" lengthAdjust="spacing" textLength="88.4707" x="411.1322" y="244.3105">(status &amp; stok)</text><polygon fill="#F1F1F1" points="448.787,277.1406,524.6376,277.1406,536.6376,289.1406,524.6376,301.1406,448.787,301.1406,436.787,289.1406,448.787,277.1406" style="stroke:#181818;stroke-width:0.5;"/><text fill="#000000" font-family="sans-serif" font-size="11" lengthAdjust="spacing" textLength="75.8506" x="448.787" y="292.9487">Alat tersedia?</text><text fill="#000000" font-family="sans-serif" font-size="11" lengthAdjust="spacing" textLength="13.46" x="423.327" y="286.5464">Ya</text><text fill="#000000" font-family="sans-serif" font-size="11" lengthAdjust="spacing" textLength="29.8687" x="536.6376" y="286.5464">Tidak</text><rect fill="#F1F1F1" height="61.9063" rx="12.5" ry="12.5" style="stroke:#181818;stroke-width:0.5;" width="227.8906" x="226.9197" y="311.1406"/><text fill="#000000" font-family="sans-serif" font-size="12" lengthAdjust="spacing" textLength="161.8594" x="236.9197" y="332.2793">Tampilkan form pengajuan</text><text fill="#000000" font-family="sans-serif" font-size="12" lengthAdjust="spacing" textLength="207.8906" x="236.9197" y="346.248">(tanggal_pinjam, tanggal_kembali,</text><text fill="#000000" font-family="sans-serif" font-size="12" lengthAdjust="spacing" textLength="98.9063" x="236.9197" y="360.2168">jumlah, catatan)</text><rect fill="#F1F1F1" height="33.9688" rx="12.5" ry="12.5" style="stroke:#181818;stroke-width:0.5;" width="178.6953" x="251.5173" y="393.0469"/><text fill="#000000" font-family="sans-serif" font-size="12" lengthAdjust="spacing" textLength="158.6953" x="261.5173" y="414.1855">POST /peminjaman/ajukan</text><rect fill="#F1F1F1" height="33.9688" rx="12.5" ry="12.5" style="stroke:#181818;stroke-width:0.5;" width="243.2832" x="219.2234" y="447.0156"/><text fill="#000000" font-family="sans-serif" font-size="12" lengthAdjust="spacing" textLength="223.2832" x="229.2234" y="468.1543">Validasi required + tanggal + jumlah</text><polygon fill="#F1F1F1" points="308.7834,500.9844,372.9465,500.9844,384.9465,512.9844,372.9465,524.9844,308.7834,524.9844,296.7834,512.9844,308.7834,500.9844" style="stroke:#181818;stroke-width:0.5;"/><text fill="#000000" font-family="sans-serif" font-size="11" lengthAdjust="spacing" textLength="64.1631" x="308.7834" y="516.7925">Input valid?</text><text fill="#000000" font-family="sans-serif" font-size="11" lengthAdjust="spacing" textLength="13.46" x="283.3235" y="510.3901">Ya</text><text fill="#000000" font-family="sans-serif" font-size="11" lengthAdjust="spacing" textLength="29.8687" x="384.9465" y="510.3901">Tidak</text><rect fill="#F1F1F1" height="47.9375" rx="12.5" ry="12.5" style="stroke:#181818;stroke-width:0.5;" width="199.9824" x="107.2319" y="534.9844"/><text fill="#000000" font-family="sans-serif" font-size="12" lengthAdjust="spacing" textLength="150.1113" x="117.2319" y="556.123">Validasi durasi &lt;= 7 hari</text><text fill="#000000" font-family="sans-serif" font-size="12" lengthAdjust="spacing" textLength="179.9824" x="117.2319" y="570.0918">(tanggal kembali boleh sama)</text><rect fill="#F1F1F1" height="33.9688" rx="12.5" ry="12.5" style="stroke:#181818;stroke-width:0.5;" width="141.9746" x="136.2358" y="602.9219"/><text fill="#000000" font-family="sans-serif" font-size="12" lengthAdjust="spacing" textLength="121.9746" x="146.2358" y="624.0605">Cek stok mencukupi</text><polygon fill="#F1F1F1" points="159.9307,656.8906,254.5156,656.8906,266.5156,668.8906,254.5156,680.8906,159.9307,680.8906,147.9307,668.8906,159.9307,656.8906" style="stroke:#181818;stroke-width:0.5;"/><text fill="#000000" font-family="sans-serif" font-size="11" lengthAdjust="spacing" textLength="94.585" x="159.9307" y="672.6987">Stok mencukupi?</text><text fill="#000000" font-family="sans-serif" font-size="11" lengthAdjust="spacing" textLength="13.46" x="134.4707" y="666.2964">Ya</text><text fill="#000000" font-family="sans-serif" font-size="11" lengthAdjust="spacing" textLength="29.8687" x="266.5156" y="666.2964">Tidak</text><rect fill="#F1F1F1" height="47.9375" rx="12.5" ry="12.5" style="stroke:#181818;stroke-width:0.5;" width="138.5352" x="38.9434" y="690.8906"/><text fill="#000000" font-family="sans-serif" font-size="12" lengthAdjust="spacing" textLength="118.5352" x="48.9434" y="712.0293">Create Peminjaman</text><text fill="#000000" font-family="sans-serif" font-size="12" lengthAdjust="spacing" textLength="103.3359" x="48.9434" y="725.998">status = pending</text><rect fill="#F1F1F1" height="47.9375" rx="12.5" ry="12.5" style="stroke:#181818;stroke-width:0.5;" width="194.4219" x="11" y="758.8281"/><text fill="#000000" font-family="sans-serif" font-size="12" lengthAdjust="spacing" textLength="73.5879" x="21" y="779.9668">LogAktivitas</text><text fill="#000000" font-family="sans-serif" font-size="12" lengthAdjust="spacing" textLength="174.4219" x="21" y="793.9355">"Mengajukan peminjaman..."</text><rect fill="#F1F1F1" height="33.9688" rx="12.5" ry="12.5" style="stroke:#181818;stroke-width:0.5;" width="153.1133" x="31.6543" y="826.7656"/><text fill="#000000" font-family="sans-serif" font-size="12" lengthAdjust="spacing" textLength="133.1133" x="41.6543" y="847.9043">Redirect /peminjaman</text><rect fill="#F1F1F1" height="47.9375" rx="12.5" ry="12.5" style="stroke:#181818;stroke-width:0.5;" width="161.627" x="225.4219" y="690.8906"/><text fill="#000000" font-family="sans-serif" font-size="12" lengthAdjust="spacing" textLength="82.002" x="235.4219" y="712.0293">Tolak request</text><text fill="#000000" font-family="sans-serif" font-size="12" lengthAdjust="spacing" textLength="141.627" x="235.4219" y="725.998">"Stok tidak mencukupi"</text><polygon fill="#F1F1F1" points="207.2231,866.7344,219.2231,878.7344,207.2231,890.7344,195.2231,878.7344,207.2231,866.7344" style="stroke:#181818;stroke-width:0.5;"/><rect fill="#F1F1F1" height="47.9375" rx="12.5" ry="12.5" style="stroke:#181818;stroke-width:0.5;" width="114.916" x="417.0488" y="534.9844"/><text fill="#000000" font-family="sans-serif" font-size="12" lengthAdjust="spacing" textLength="82.002" x="427.0488" y="556.123">Tolak request</text><text fill="#000000" font-family="sans-serif" font-size="12" lengthAdjust="spacing" textLength="94.916" x="427.0488" y="570.0918">"Validasi gagal"</text><polygon fill="#F1F1F1" points="340.865,896.7344,352.865,908.7344,340.865,920.7344,328.865,908.7344,340.865,896.7344" style="stroke:#181818;stroke-width:0.5;"/><rect fill="#F1F1F1" height="47.9375" rx="12.5" ry="12.5" style="stroke:#181818;stroke-width:0.5;" width="141.1895" x="561.9648" y="311.1406"/><text fill="#000000" font-family="sans-serif" font-size="12" lengthAdjust="spacing" textLength="95.9063" x="571.9648" y="332.2793">Tampilkan error</text><text fill="#000000" font-family="sans-serif" font-size="12" lengthAdjust="spacing" textLength="121.1895" x="571.9648" y="346.248">"Alat tidak tersedia"</text><polygon fill="#F1F1F1" points="486.7123,926.7344,498.7123,938.7344,486.7123,950.7344,474.7123,938.7344,486.7123,926.7344" style="stroke:#181818;stroke-width:0.5;"/><ellipse cx="486.7123" cy="981.7344" fill="none" rx="11" ry="11" style="stroke:#222222;stroke-width:1;"/><ellipse cx="486.7123" cy="981.7344" fill="#222222" rx="6" ry="6" style="stroke:#222222;stroke-width:1;"/><line style="stroke:#181818;stroke-width:1;" x1="486.7123" x2="486.7123" y1="67.2969" y2="87.2969"/><polygon fill="#181818" points="482.7123,77.2969,486.7123,87.2969,490.7123,77.2969,486.7123,81.2969" style="stroke:#181818;stroke-width:1;"/><line style="stroke:#181818;stroke-width:1;" x1="486.7123" x2="486.7123" y1="135.2344" y2="155.2344"/><polygon fill="#181818" points="482.7123,145.2344,486.7123,155.2344,490.7123,145.2344,486.7123,149.2344" style="stroke:#181818;stroke-width:1;"/><line style="stroke:#181818;stroke-width:1;" x1="486.7123" x2="486.7123" y1="189.2031" y2="209.2031"/><polygon fill="#181818" points="482.7123,199.2031,486.7123,209.2031,490.7123,199.2031,486.7123,203.2031" style="stroke:#181818;stroke-width:1;"/><line style="stroke:#181818;stroke-width:1;" x1="340.865" x2="340.865" y1="373.0469" y2="393.0469"/><polygon fill="#181818" points="336.865,383.0469,340.865,393.0469,344.865,383.0469,340.865,387.0469" style="stroke:#181818;stroke-width:1;"/><line style="stroke:#181818;stroke-width:1;" x1="340.865" x2="340.865" y1="427.0156" y2="447.0156"/><polygon fill="#181818" points="336.865,437.0156,340.865,447.0156,344.865,437.0156,340.865,441.0156" style="stroke:#181818;stroke-width:1;"/><line style="stroke:#181818;stroke-width:1;" x1="207.2231" x2="207.2231" y1="582.9219" y2="602.9219"/><polygon fill="#181818" points="203.2231,592.9219,207.2231,602.9219,211.2231,592.9219,207.2231,596.9219" style="stroke:#181818;stroke-width:1;"/><line style="stroke:#181818;stroke-width:1;" x1="108.2109" x2="108.2109" y1="738.8281" y2="758.8281"/><polygon fill="#181818" points="104.2109,748.8281,108.2109,758.8281,112.2109,748.8281,108.2109,752.8281" style="stroke:#181818;stroke-width:1;"/><line style="stroke:#181818;stroke-width:1;" x1="108.2109" x2="108.2109" y1="806.7656" y2="826.7656"/><polygon fill="#181818" points="104.2109,816.7656,108.2109,826.7656,112.2109,816.7656,108.2109,820.7656" style="stroke:#181818;stroke-width:1;"/><line style="stroke:#181818;stroke-width:1;" x1="147.9307" x2="108.2109" y1="668.8906" y2="668.8906"/><line style="stroke:#181818;stroke-width:1;" x1="108.2109" x2="108.2109" y1="668.8906" y2="690.8906"/><polygon fill="#181818" points="104.2109,680.8906,108.2109,690.8906,112.2109,680.8906,108.2109,684.8906" style="stroke:#181818;stroke-width:1;"/><line style="stroke:#181818;stroke-width:1;" x1="266.5156" x2="306.2354" y1="668.8906" y2="668.8906"/><line style="stroke:#181818;stroke-width:1;" x1="306.2354" x2="306.2354" y1="668.8906" y2="690.8906"/><polygon fill="#181818" points="302.2354,680.8906,306.2354,690.8906,310.2354,680.8906,306.2354,684.8906" style="stroke:#181818;stroke-width:1;"/><line style="stroke:#181818;stroke-width:1;" x1="108.2109" x2="108.2109" y1="860.7344" y2="878.7344"/><line style="stroke:#181818;stroke-width:1;" x1="108.2109" x2="195.2231" y1="878.7344" y2="878.7344"/><polygon fill="#181818" points="185.2231,874.7344,195.2231,878.7344,185.2231,882.7344,189.2231,878.7344" style="stroke:#181818;stroke-width:1;"/><line style="stroke:#181818;stroke-width:1;" x1="306.2354" x2="306.2354" y1="738.8281" y2="878.7344"/><line style="stroke:#181818;stroke-width:1;" x1="306.2354" x2="219.2231" y1="878.7344" y2="878.7344"/><polygon fill="#181818" points="229.2231,874.7344,219.2231,878.7344,229.2231,882.7344,225.2231,878.7344" style="stroke:#181818;stroke-width:1;"/><line style="stroke:#181818;stroke-width:1;" x1="207.2231" x2="207.2231" y1="636.8906" y2="656.8906"/><polygon fill="#181818" points="203.2231,646.8906,207.2231,656.8906,211.2231,646.8906,207.2231,650.8906" style="stroke:#181818;stroke-width:1;"/><line style="stroke:#181818;stroke-width:1;" x1="296.7834" x2="207.2231" y1="512.9844" y2="512.9844"/><line style="stroke:#181818;stroke-width:1;" x1="207.2231" x2="207.2231" y1="512.9844" y2="534.9844"/><polygon fill="#181818" points="203.2231,524.9844,207.2231,534.9844,211.2231,524.9844,207.2231,528.9844" style="stroke:#181818;stroke-width:1;"/><line style="stroke:#181818;stroke-width:1;" x1="384.9465" x2="474.5068" y1="512.9844" y2="512.9844"/><line style="stroke:#181818;stroke-width:1;" x1="474.5068" x2="474.5068" y1="512.9844" y2="534.9844"/><polygon fill="#181818" points="470.5068,524.9844,474.5068,534.9844,478.5068,524.9844,474.5068,528.9844" style="stroke:#181818;stroke-width:1;"/><line style="stroke:#181818;stroke-width:1;" x1="207.2231" x2="207.2231" y1="890.7344" y2="908.7344"/><line style="stroke:#181818;stroke-width:1;" x1="207.2231" x2="328.865" y1="908.7344" y2="908.7344"/><polygon fill="#181818" points="318.865,904.7344,328.865,908.7344,318.865,912.7344,322.865,908.7344" style="stroke:#181818;stroke-width:1;"/><line style="stroke:#181818;stroke-width:1;" x1="474.5068" x2="474.5068" y1="582.9219" y2="908.7344"/><line style="stroke:#181818;stroke-width:1;" x1="474.5068" x2="352.865" y1="908.7344" y2="908.7344"/><polygon fill="#181818" points="362.865,904.7344,352.865,908.7344,362.865,912.7344,358.865,908.7344" style="stroke:#181818;stroke-width:1;"/><line style="stroke:#181818;stroke-width:1;" x1="340.865" x2="340.865" y1="480.9844" y2="500.9844"/><polygon fill="#181818" points="336.865,490.9844,340.865,500.9844,344.865,490.9844,340.865,494.9844" style="stroke:#181818;stroke-width:1;"/><line style="stroke:#181818;stroke-width:1;" x1="436.787" x2="340.865" y1="289.1406" y2="289.1406"/><line style="stroke:#181818;stroke-width:1;" x1="340.865" x2="340.865" y1="289.1406" y2="311.1406"/><polygon fill="#181818" points="336.865,301.1406,340.865,311.1406,344.865,301.1406,340.865,305.1406" style="stroke:#181818;stroke-width:1;"/><line style="stroke:#181818;stroke-width:1;" x1="536.6376" x2="632.5596" y1="289.1406" y2="289.1406"/><line style="stroke:#181818;stroke-width:1;" x1="632.5596" x2="632.5596" y1="289.1406" y2="311.1406"/><polygon fill="#181818" points="628.5596,301.1406,632.5596,311.1406,636.5596,301.1406,632.5596,305.1406" style="stroke:#181818;stroke-width:1;"/><line style="stroke:#181818;stroke-width:1;" x1="340.865" x2="340.865" y1="920.7344" y2="938.7344"/><line style="stroke:#181818;stroke-width:1;" x1="340.865" x2="474.7123" y1="938.7344" y2="938.7344"/><polygon fill="#181818" points="464.7123,934.7344,474.7123,938.7344,464.7123,942.7344,468.7123,938.7344" style="stroke:#181818;stroke-width:1;"/><line style="stroke:#181818;stroke-width:1;" x1="632.5596" x2="632.5596" y1="359.0781" y2="938.7344"/><line style="stroke:#181818;stroke-width:1;" x1="632.5596" x2="498.7123" y1="938.7344" y2="938.7344"/><polygon fill="#181818" points="508.7123,934.7344,498.7123,938.7344,508.7123,942.7344,504.7123,938.7344" style="stroke:#181818;stroke-width:1;"/><line style="stroke:#181818;stroke-width:1;" x1="486.7123" x2="486.7123" y1="257.1406" y2="277.1406"/><polygon fill="#181818" points="482.7123,267.1406,486.7123,277.1406,490.7123,267.1406,486.7123,271.1406" style="stroke:#181818;stroke-width:1;"/><line style="stroke:#181818;stroke-width:1;" x1="486.7123" x2="486.7123" y1="950.7344" y2="970.7344"/><polygon fill="#181818" points="482.7123,960.7344,486.7123,970.7344,490.7123,960.7344,486.7123,964.7344" style="stroke:#181818;stroke-width:1;"/><!--SRC=[RLDHQy8m47xlhpXy69KvVHpePCZOnc1ZCcKmA8opFTkODCsIrFtzNLghJdtADNVVTzzzkNhX5S6JgdxJ0gs76vYJpd5Je-Qe57g39OSpXHvYMg0r5ljHv3mNH-Ek0aeEb2W0kIxH1ZE4WkC07OMxIJH-Vbp2oEmfHzn3yZ4M6ISNPBSY9KX9WYHFrb4c47MYOsxbQmTNu7mb-vCe4ck86prTsNqVV44QuY-M1Z1UOcc4Od9OLxO4qmt4P1vrdgFwDesA0NJVaieLAZ58zAOk5HO3I97xekQ6p3X_NrmIt-G-6PUX4s3ffnQMChZkQ3bgwLWrGD3zeatjOHiW9wgFcRBQXkDk2hTienK7uR0J2gjAKG6EnJGA6Vt0rWMB-2rqMilQY3OHsYx-tPzr3cXBwEdeoHEzCtuQ3Co4pYTTxMkLpwGNM-7H9RhtrleR_3uuD1mEUtl01x-IfTGVMzWcIJc2UCbZoxsKPQLGDcwIusNgDU9zA3cCiECEmjRH1PepahstERAD3Rm5dq2FbeUihIn3srrh-dSRn_WMpJz2PVu0]--></g><style xmlns="http://www.w3.org/1999/xhtml" id="VMst0.9006945788054783">.select-text-inside-a-link{ -moz-user-select: text!important; }</style><script xmlns=""/></svg>