<svg xmlns="http://www.w3.org/2000/svg" xmlns:xlink="http://www.w3.org/1999/xlink" contentStyleType="text/css" data-diagram-type="ACTIVITY" height="1535px" preserveAspectRatio="none" style="width:1780px;height:1535px;background:#FFFFFF;" version="1.1" viewBox="0 0 1780 1535" width="1780px" zoomAndPan="magnify"><title>Flowchart - Proses Login (eSarpra)</title><defs/><g><g class="title" data-source-line="1"><text fill="#000000" font-family="sans-serif" font-size="14" font-weight="bold" lengthAdjust="spacing" textLength="274.9004" x="751.4678" y="32.9951">Flowchart - Proses Login (eSarpra)</text></g><ellipse cx="1156.0972" cy="57.2969" fill="#222222" rx="10" ry="10" style="stroke:#222222;stroke-width:1;"/><rect fill="#F1F1F1" height="47.9375" rx="12.5" ry="12.5" style="stroke:#181818;stroke-width:0.5;" width="154.373" x="1078.9107" y="87.2969"/><text fill="#000000" font-family="sans-serif" font-size="12" lengthAdjust="spacing" textLength="78.3809" x="1088.9107" y="108.4355">User mengisi</text><text fill="#000000" font-family="sans-serif" font-size="12" lengthAdjust="spacing" textLength="134.373" x="1088.9107" y="122.4043">username &amp; password</text><rect fill="#F1F1F1" height="33.9688" rx="12.5" ry="12.5" style="stroke:#181818;stroke-width:0.5;" width="88.7188" x="1111.7379" y="155.2344"/><text fill="#000000" font-family="sans-serif" font-size="12" lengthAdjust="spacing" textLength="68.7188" x="1121.7379" y="176.373">POST /login</text><polygon fill="#F1F1F1" points="1109.4493,209.2031,1202.7452,209.2031,1214.7452,221.2031,1202.7452,233.2031,1109.4493,233.2031,1097.4493,221.2031,1109.4493,209.2031" style="stroke:#181818;stroke-width:0.5;"/><text fill="#000000" font-family="sans-serif" font-size="11" lengthAdjust="spacing" textLength="93.2959" x="1109.4493" y="225.0112">User ditemukan?</text><text fill="#000000" font-family="sans-serif" font-size="11" lengthAdjust="spacing" textLength="13.46" x="1083.9893" y="218.6089">Ya</text><text fill="#000000" font-family="sans-serif" font-size="11" lengthAdjust="spacing" textLength="29.8687" x="1214.7452" y="218.6089">Tidak</text><polygon fill="#F1F1F1" points="750.3624,243.2031,809.1222,243.2031,821.1222,255.2031,809.1222,267.2031,750.3624,267.2031,738.3624,255.2031,750.3624,243.2031" style="stroke:#181818;stroke-width:0.5;"/><text fill="#000000" font-family="sans-serif" font-size="11" lengthAdjust="spacing" textLength="58.7598" x="750.3624" y="259.0112">User aktif?</text><text fill="#000000" font-family="sans-serif" font-size="11" lengthAdjust="spacing" textLength="13.46" x="724.9025" y="252.6089">Ya</text><text fill="#000000" font-family="sans-serif" font-size="11" lengthAdjust="spacing" textLength="29.8687" x="821.1222" y="252.6089">Tidak</text><rect fill="#F1F1F1" height="47.9375" rx="12.5" ry="12.5" style="stroke:#181818;stroke-width:0.5;" width="127.7832" x="403.5862" y="277.2031"/><text fill="#000000" font-family="sans-serif" font-size="12" lengthAdjust="spacing" textLength="107.7832" x="413.5862" y="298.3418">Validasi password</text><text fill="#000000" font-family="sans-serif" font-size="12" lengthAdjust="spacing" textLength="104.666" x="413.5862" y="312.3105">(bcrypt compare)</text><polygon fill="#F1F1F1" points="420.7842,360.1406,514.1714,360.1406,526.1714,372.1406,514.1714,384.1406,420.7842,384.1406,408.7842,372.1406,420.7842,360.1406" style="stroke:#181818;stroke-width:0.5;"/><text fill="#000000" font-family="sans-serif" font-size="11" lengthAdjust="spacing" textLength="93.3872" x="420.7842" y="375.9487">Password benar?</text><text fill="#000000" font-family="sans-serif" font-size="11" lengthAdjust="spacing" textLength="13.46" x="395.3242" y="369.5464">Ya</text><text fill="#000000" font-family="sans-serif" font-size="11" lengthAdjust="spacing" textLength="29.8687" x="526.1714" y="369.5464">Tidak</text><rect fill="#F1F1F1" height="47.9375" rx="12.5" ry="12.5" style="stroke:#181818;stroke-width:0.5;" width="126.8867" x="140.4897" y="394.1406"/><text fill="#000000" font-family="sans-serif" font-size="12" lengthAdjust="spacing" textLength="67.9395" x="150.4897" y="415.2793">Set session</text><text fill="#000000" font-family="sans-serif" font-size="12" lengthAdjust="spacing" textLength="106.8867" x="150.4897" y="429.248">userId &amp; userRole</text><rect fill="#F1F1F1" height="33.9688" rx="12.5" ry="12.5" style="stroke:#181818;stroke-width:0.5;" width="124.1504" x="141.8579" y="477.0781"/><text fill="#000000" font-family="sans-serif" font-size="12" lengthAdjust="spacing" textLength="104.1504" x="151.8579" y="498.2168">Update last_login</text><polygon fill="#F1F1F1" points="160.0835,546.0469,247.7827,546.0469,259.7827,558.0469,247.7827,570.0469,160.0835,570.0469,148.0835,558.0469,160.0835,546.0469" style="stroke:#181818;stroke-width:0.5;"/><text fill="#000000" font-family="sans-serif" font-size="11" lengthAdjust="spacing" textLength="87.6992" x="160.0835" y="561.855">Remember me?</text><text fill="#000000" font-family="sans-serif" font-size="11" lengthAdjust="spacing" textLength="13.46" x="134.6235" y="555.4526">Ya</text><text fill="#000000" font-family="sans-serif" font-size="11" lengthAdjust="spacing" textLength="29.8687" x="259.7827" y="555.4526">Tidak</text><rect fill="#F1F1F1" height="47.9375" rx="12.5" ry="12.5" style="stroke:#181818;stroke-width:0.5;" width="189.2773" x="11" y="580.0469"/><text fill="#000000" font-family="sans-serif" font-size="12" lengthAdjust="spacing" textLength="164.7129" x="21" y="601.1855">Generate remember token;</text><text fill="#000000" font-family="sans-serif" font-size="12" lengthAdjust="spacing" textLength="169.2773" x="21" y="615.1543">Set cookie remember_token</text><rect fill="#F1F1F1" height="33.9688" rx="12.5" ry="12.5" style="stroke:#181818;stroke-width:0.5;" width="163.9004" x="220.2773" y="580.0469"/><text fill="#000000" font-family="sans-serif" font-size="12" lengthAdjust="spacing" textLength="143.9004" x="230.2773" y="601.1855">Lewati remember token</text><polygon fill="#F1F1F1" points="203.9331,633.9844,215.9331,645.9844,203.9331,657.9844,191.9331,645.9844,203.9331,633.9844" style="stroke:#181818;stroke-width:0.5;"/><rect fill="#F1F1F1" height="47.9375" rx="12.5" ry="12.5" style="stroke:#181818;stroke-width:0.5;" width="183.5879" x="112.1392" y="692.9844"/><text fill="#000000" font-family="sans-serif" font-size="12" lengthAdjust="spacing" textLength="119.0918" x="122.1392" y="714.123">Redirect sesuai role</text><text fill="#000000" font-family="sans-serif" font-size="12" lengthAdjust="spacing" textLength="163.5879" x="122.1392" y="728.0918">(admin/petugas/peminjam)</text><rect fill="#F1F1F1" height="47.9375" rx="12.5" ry="12.5" style="stroke:#181818;stroke-width:0.5;" width="219.9629" x="661.041" y="394.1406"/><text fill="#000000" font-family="sans-serif" font-size="12" lengthAdjust="spacing" textLength="64.7871" x="671.041" y="415.2793">Flash error</text><text fill="#000000" font-family="sans-serif" font-size="12" lengthAdjust="spacing" textLength="199.9629" x="671.041" y="429.248">"Username atau password salah"</text><rect fill="#F1F1F1" height="47.9375" rx="12.5" ry="12.5" style="stroke:#181818;stroke-width:0.5;" width="127.666" x="707.1895" y="477.0781"/><text fill="#000000" font-family="sans-serif" font-size="12" lengthAdjust="spacing" textLength="90.9258" x="717.1895" y="498.2168">Tampilkan opsi</text><text fill="#000000" font-family="sans-serif" font-size="12" lengthAdjust="spacing" textLength="107.666" x="717.1895" y="512.1855">"Lupa password?"</text><polygon fill="#F1F1F1" points="726.7351,560.0156,815.3098,560.0156,827.3098,572.0156,815.3098,584.0156,726.7351,584.0156,714.7351,572.0156,726.7351,560.0156" style="stroke:#181818;stroke-width:0.5;"/><text fill="#000000" font-family="sans-serif" font-size="11" lengthAdjust="spacing" textLength="88.5747" x="726.7351" y="575.8237">Lupa password?</text><text fill="#000000" font-family="sans-serif" font-size="11" lengthAdjust="spacing" textLength="13.46" x="701.2751" y="569.4214">Ya</text><text fill="#000000" font-family="sans-serif" font-size="11" lengthAdjust="spacing" textLength="29.8687" x="827.3098" y="569.4214">Tidak</text><rect fill="#F1F1F1" height="33.9688" rx="12.5" ry="12.5" style="stroke:#181818;stroke-width:0.5;" width="149.7441" x="542.457" y="594.0156"/><text fill="#000000" font-family="sans-serif" font-size="12" lengthAdjust="spacing" textLength="129.7441" x="552.457" y="615.1543">GET /forgot-password</text><rect fill="#F1F1F1" height="33.9688" rx="12.5" ry="12.5" style="stroke:#181818;stroke-width:0.5;" width="152.2285" x="541.2148" y="662.9844"/><text fill="#000000" font-family="sans-serif" font-size="12" lengthAdjust="spacing" textLength="132.2285" x="551.2148" y="684.123">Input username/email</text><rect fill="#F1F1F1" height="33.9688" rx="12.5" ry="12.5" style="stroke:#181818;stroke-width:0.5;" width="157.1621" x="538.748" y="731.9531"/><text fill="#000000" font-family="sans-serif" font-size="12" lengthAdjust="spacing" textLength="137.1621" x="548.748" y="753.0918">POST /forgot-password</text><rect fill="#F1F1F1" height="33.9688" rx="12.5" ry="12.5" style="stroke:#181818;stroke-width:0.5;" width="203.75" x="515.4541" y="798.9219"/><text fill="#000000" font-family="sans-serif" font-size="12" lengthAdjust="spacing" textLength="183.75" x="525.4541" y="820.0605">Generate reset token + expire</text><rect fill="#F1F1F1" height="33.9688" rx="12.5" ry="12.5" style="stroke:#181818;stroke-width:0.5;" width="147.5762" x="543.541" y="865.8906"/><text fill="#000000" font-family="sans-serif" font-size="12" lengthAdjust="spacing" textLength="127.5762" x="553.541" y="887.0293">Kirim email reset link</text><rect fill="#F1F1F1" height="33.9688" rx="12.5" ry="12.5" style="stroke:#181818;stroke-width:0.5;" width="217.2734" x="508.6924" y="920.8281"/><text fill="#000000" font-family="sans-serif" font-size="12" lengthAdjust="spacing" textLength="197.2734" x="518.6924" y="941.9668">Buka link /reset-password/:token</text><rect fill="#F1F1F1" height="47.9375" rx="12.5" ry="12.5" style="stroke:#181818;stroke-width:0.5;" width="143.3926" x="545.6328" y="975.7656"/><text fill="#000000" font-family="sans-serif" font-size="12" lengthAdjust="spacing" textLength="123.3926" x="555.6328" y="996.9043">Input password baru</text><text fill="#000000" font-family="sans-serif" font-size="12" lengthAdjust="spacing" textLength="76.8867" x="555.6328" y="1010.873">+ konfirmasi</text><rect fill="#F1F1F1" height="33.9688" rx="12.5" ry="12.5" style="stroke:#181818;stroke-width:0.5;" width="193.7246" x="520.4668" y="1058.7031"/><text fill="#000000" font-family="sans-serif" font-size="12" lengthAdjust="spacing" textLength="173.7246" x="530.4668" y="1079.8418">POST /reset-password/:token</text><polygon fill="#F1F1F1" points="535.1353,1127.6719,699.5229,1127.6719,711.5229,1139.6719,699.5229,1151.6719,535.1353,1151.6719,523.1353,1139.6719,535.1353,1127.6719" style="stroke:#181818;stroke-width:0.5;"/><text fill="#000000" font-family="sans-serif" font-size="11" lengthAdjust="spacing" textLength="164.3877" x="535.1353" y="1143.48">Token valid &amp; belum expired?</text><text fill="#000000" font-family="sans-serif" font-size="11" lengthAdjust="spacing" textLength="13.46" x="509.6753" y="1137.0776">Ya</text><text fill="#000000" font-family="sans-serif" font-size="11" lengthAdjust="spacing" textLength="29.8687" x="711.5229" y="1137.0776">Tidak</text><rect fill="#F1F1F1" height="47.9375" rx="12.5" ry="12.5" style="stroke:#181818;stroke-width:0.5;" width="212.8789" x="394.1777" y="1161.6719"/><text fill="#000000" font-family="sans-serif" font-size="12" lengthAdjust="spacing" textLength="192.8789" x="404.1777" y="1182.8105">Update password (bcrypt hash);</text><text fill="#000000" font-family="sans-serif" font-size="12" lengthAdjust="spacing" textLength="101.8711" x="404.1777" y="1196.7793">clear reset token</text><rect fill="#F1F1F1" height="33.9688" rx="12.5" ry="12.5" style="stroke:#181818;stroke-width:0.5;" width="95.9551" x="452.6396" y="1244.6094"/><text fill="#000000" font-family="sans-serif" font-size="12" lengthAdjust="spacing" textLength="75.9551" x="462.6396" y="1265.748">Flash sukses</text><rect fill="#F1F1F1" height="33.9688" rx="12.5" ry="12.5" style="stroke:#181818;stroke-width:0.5;" width="107.3809" x="446.9268" y="1298.5781"/><text fill="#000000" font-family="sans-serif" font-size="12" lengthAdjust="spacing" textLength="87.3809" x="456.9268" y="1319.7168">Redirect /login</text><rect fill="#F1F1F1" height="47.9375" rx="12.5" ry="12.5" style="stroke:#181818;stroke-width:0.5;" width="213.9688" x="627.0566" y="1161.6719"/><text fill="#000000" font-family="sans-serif" font-size="12" lengthAdjust="spacing" textLength="64.7871" x="637.0566" y="1182.8105">Flash error</text><text fill="#000000" font-family="sans-serif" font-size="12" lengthAdjust="spacing" textLength="193.9688" x="637.0566" y="1196.7793">"Token tidak valid/kedaluwarsa"</text><rect fill="#F1F1F1" height="33.9688" rx="12.5" ry="12.5" style="stroke:#181818;stroke-width:0.5;" width="175.8242" x="646.1289" y="1244.6094"/><text fill="#000000" font-family="sans-serif" font-size="12" lengthAdjust="spacing" textLength="155.8242" x="656.1289" y="1265.748">Redirect /forgot-password</text><polygon fill="#F1F1F1" points="617.3291,1338.5469,629.3291,1350.5469,617.3291,1362.5469,605.3291,1350.5469,617.3291,1338.5469" style="stroke:#181818;stroke-width:0.5;"/><rect fill="#F1F1F1" height="33.9688" rx="12.5" ry="12.5" style="stroke:#181818;stroke-width:0.5;" width="107.3809" x="871.0254" y="594.0156"/><text fill="#000000" font-family="sans-serif" font-size="12" lengthAdjust="spacing" textLength="87.3809" x="881.0254" y="615.1543">Redirect /login</text><polygon fill="#F1F1F1" points="771.0225,1368.5469,783.0225,1380.5469,771.0225,1392.5469,759.0225,1380.5469,771.0225,1368.5469" style="stroke:#181818;stroke-width:0.5;"/><polygon fill="#F1F1F1" points="467.4778,1398.5469,479.4778,1410.5469,467.4778,1422.5469,455.4778,1410.5469,467.4778,1398.5469" style="stroke:#181818;stroke-width:0.5;"/><rect fill="#F1F1F1" height="47.9375" rx="12.5" ry="12.5" style="stroke:#181818;stroke-width:0.5;" width="147.2012" x="988.4063" y="277.2031"/><text fill="#000000" font-family="sans-serif" font-size="12" lengthAdjust="spacing" textLength="64.7871" x="998.4063" y="298.3418">Flash error</text><text fill="#000000" font-family="sans-serif" font-size="12" lengthAdjust="spacing" textLength="127.2012" x="998.4063" y="312.3105">"Akun dinonaktifkan"</text><rect fill="#F1F1F1" height="33.9688" rx="12.5" ry="12.5" style="stroke:#181818;stroke-width:0.5;" width="107.3809" x="1008.3164" y="360.1406"/><text fill="#000000" font-family="sans-serif" font-size="12" lengthAdjust="spacing" textLength="87.3809" x="1018.3164" y="381.2793">Redirect /login</text><polygon fill="#F1F1F1" points="779.7423,1428.5469,791.7423,1440.5469,779.7423,1452.5469,767.7423,1440.5469,779.7423,1428.5469" style="stroke:#181818;stroke-width:0.5;"/><rect fill="#F1F1F1" height="47.9375" rx="12.5" ry="12.5" style="stroke:#181818;stroke-width:0.5;" width="219.9629" x="1452.4707" y="243.2031"/><text fill="#000000" font-family="sans-serif" font-size="12" lengthAdjust="spacing" textLength="64.7871" x="1462.4707" y="264.3418">Flash error</text><text fill="#000000" font-family="sans-serif" font-size="12" lengthAdjust="spacing" textLength="199.9629" x="1462.4707" y="278.3105">"Username atau password salah"</text><rect fill="#F1F1F1" height="47.9375" rx="12.5" ry="12.5" style="stroke:#181818;stroke-width:0.5;" width="127.666" x="1498.6191" y="326.1406"/><text fill="#000000" font-family="sans-serif" font-size="12" lengthAdjust="spacing" textLength="90.9258" x="1508.6191" y="347.2793">Tampilkan opsi</text><text fill="#000000" font-family="sans-serif" font-size="12" lengthAdjust="spacing" textLength="107.666" x="1508.6191" y="361.248">"Lupa password?"</text><polygon fill="#F1F1F1" points="1518.1648,409.0781,1606.7395,409.0781,1618.7395,421.0781,1606.7395,433.0781,1518.1648,433.0781,1506.1648,421.0781,1518.1648,409.0781" style="stroke:#181818;stroke-width:0.5;"/><text fill="#000000" font-family="sans-serif" font-size="11" lengthAdjust="spacing" textLength="88.5747" x="1518.1648" y="424.8862">Lupa password?</text><text fill="#000000" font-family="sans-serif" font-size="11" lengthAdjust="spacing" textLength="13.46" x="1492.7048" y="418.4839">Ya</text><text fill="#000000" font-family="sans-serif" font-size="11" lengthAdjust="spacing" textLength="29.8687" x="1618.7395" y="418.4839">Tidak</text><rect fill="#F1F1F1" height="33.9688" rx="12.5" ry="12.5" style="stroke:#181818;stroke-width:0.5;" width="149.7441" x="1333.8867" y="443.0781"/><text fill="#000000" font-family="sans-serif" font-size="12" lengthAdjust="spacing" textLength="129.7441" x="1343.8867" y="464.2168">GET /forgot-password</text><rect fill="#F1F1F1" height="33.9688" rx="12.5" ry="12.5" style="stroke:#181818;stroke-width:0.5;" width="152.2285" x="1332.6445" y="512.0469"/><text fill="#000000" font-family="sans-serif" font-size="12" lengthAdjust="spacing" textLength="132.2285" x="1342.6445" y="533.1855">Input username/email</text><rect fill="#F1F1F1" height="33.9688" rx="12.5" ry="12.5" style="stroke:#181818;stroke-width:0.5;" width="157.1621" x="1330.1777" y="581.0156"/><text fill="#000000" font-family="sans-serif" font-size="12" lengthAdjust="spacing" textLength="137.1621" x="1340.1777" y="602.1543">POST /forgot-password</text><rect fill="#F1F1F1" height="33.9688" rx="12.5" ry="12.5" style="stroke:#181818;stroke-width:0.5;" width="203.75" x="1306.8838" y="649.9844"/><text fill="#000000" font-family="sans-serif" font-size="12" lengthAdjust="spacing" textLength="183.75" x="1316.8838" y="671.123">Generate reset token + expire</text><rect fill="#F1F1F1" height="33.9688" rx="12.5" ry="12.5" style="stroke:#181818;stroke-width:0.5;" width="147.5762" x="1334.9707" y="718.9531"/><text fill="#000000" font-family="sans-serif" font-size="12" lengthAdjust="spacing" textLength="127.5762" x="1344.9707" y="740.0918">Kirim email reset link</text><rect fill="#F1F1F1" height="33.9688" rx="12.5" ry="12.5" style="stroke:#181818;stroke-width:0.5;" width="217.2734" x="1300.1221" y="785.9219"/><text fill="#000000" font-family="sans-serif" font-size="12" lengthAdjust="spacing" textLength="197.2734" x="1310.1221" y="807.0605">Buka link /reset-password/:token</text><rect fill="#F1F1F1" height="47.9375" rx="12.5" ry="12.5" style="stroke:#181818;stroke-width:0.5;" width="143.3926" x="1337.0625" y="852.8906"/><text fill="#000000" font-family="sans-serif" font-size="12" lengthAdjust="spacing" textLength="123.3926" x="1347.0625" y="874.0293">Input password baru</text><text fill="#000000" font-family="sans-serif" font-size="12" lengthAdjust="spacing" textLength="76.8867" x="1347.0625" y="887.998">+ konfirmasi</text><rect fill="#F1F1F1" height="33.9688" rx="12.5" ry="12.5" style="stroke:#181818;stroke-width:0.5;" width="193.7246" x="1311.8965" y="921.7969"/><text fill="#000000" font-family="sans-serif" font-size="12" lengthAdjust="spacing" textLength="173.7246" x="1321.8965" y="942.9355">POST /reset-password/:token</text><polygon fill="#F1F1F1" points="1326.5649,976.7344,1490.9526,976.7344,1502.9526,988.7344,1490.9526,1000.7344,1326.5649,1000.7344,1314.5649,988.7344,1326.5649,976.7344" style="stroke:#181818;stroke-width:0.5;"/><text fill="#000000" font-family="sans-serif" font-size="11" lengthAdjust="spacing" textLength="164.3877" x="1326.5649" y="992.5425">Token valid &amp; belum expired?</text><text fill="#000000" font-family="sans-serif" font-size="11" lengthAdjust="spacing" textLength="13.46" x="1301.105" y="986.1401">Ya</text><text fill="#000000" font-family="sans-serif" font-size="11" lengthAdjust="spacing" textLength="29.8687" x="1502.9526" y="986.1401">Tidak</text><rect fill="#F1F1F1" height="47.9375" rx="12.5" ry="12.5" style="stroke:#181818;stroke-width:0.5;" width="212.8789" x="1185.6074" y="1010.7344"/><text fill="#000000" font-family="sans-serif" font-size="12" lengthAdjust="spacing" textLength="192.8789" x="1195.6074" y="1031.873">Update password (bcrypt hash);</text><text fill="#000000" font-family="sans-serif" font-size="12" lengthAdjust="spacing" textLength="101.8711" x="1195.6074" y="1045.8418">clear reset token</text><rect fill="#F1F1F1" height="33.9688" rx="12.5" ry="12.5" style="stroke:#181818;stroke-width:0.5;" width="95.9551" x="1244.0693" y="1093.6719"/><text fill="#000000" font-family="sans-serif" font-size="12" lengthAdjust="spacing" textLength="75.9551" x="1254.0693" y="1114.8105">Flash sukses</text><rect fill="#F1F1F1" height="33.9688" rx="12.5" ry="12.5" style="stroke:#181818;stroke-width:0.5;" width="107.3809" x="1238.3564" y="1162.6406"/><text fill="#000000" font-family="sans-serif" font-size="12" lengthAdjust="spacing" textLength="87.3809" x="1248.3564" y="1183.7793">Redirect /login</text><rect fill="#F1F1F1" height="47.9375" rx="12.5" ry="12.5" style="stroke:#181818;stroke-width:0.5;" width="213.9688" x="1418.4863" y="1010.7344"/><text fill="#000000" font-family="sans-serif" font-size="12" lengthAdjust="spacing" textLength="64.7871" x="1428.4863" y="1031.873">Flash error</text><text fill="#000000" font-family="sans-serif" font-size="12" lengthAdjust="spacing" textLength="193.9688" x="1428.4863" y="1045.8418">"Token tidak valid/kedaluwarsa"</text><rect fill="#F1F1F1" height="33.9688" rx="12.5" ry="12.5" style="stroke:#181818;stroke-width:0.5;" width="175.8242" x="1437.5586" y="1093.6719"/><text fill="#000000" font-family="sans-serif" font-size="12" lengthAdjust="spacing" textLength="155.8242" x="1447.5586" y="1114.8105">Redirect /forgot-password</text><polygon fill="#F1F1F1" points="1408.7588,1202.6094,1420.7588,1214.6094,1408.7588,1226.6094,1396.7588,1214.6094,1408.7588,1202.6094" style="stroke:#181818;stroke-width:0.5;"/><rect fill="#F1F1F1" height="33.9688" rx="12.5" ry="12.5" style="stroke:#181818;stroke-width:0.5;" width="107.3809" x="1662.4551" y="443.0781"/><text fill="#000000" font-family="sans-serif" font-size="12" lengthAdjust="spacing" textLength="87.3809" x="1672.4551" y="464.2168">Redirect /login</text><polygon fill="#F1F1F1" points="1562.4521,1232.6094,1574.4521,1244.6094,1562.4521,1256.6094,1550.4521,1244.6094,1562.4521,1232.6094" style="stroke:#181818;stroke-width:0.5;"/><polygon fill="#F1F1F1" points="1156.0972,1458.5469,1168.0972,1470.5469,1156.0972,1482.5469,1144.0972,1470.5469,1156.0972,1458.5469" style="stroke:#181818;stroke-width:0.5;"/><ellipse cx="1156.0972" cy="1513.5469" fill="none" rx="11" ry="11" style="stroke:#222222;stroke-width:1;"/><ellipse cx="1156.0972" cy="1513.5469" fill="#222222" rx="6" ry="6" style="stroke:#222222;stroke-width:1;"/><line style="stroke:#181818;stroke-width:1;" x1="1156.0972" x2="1156.0972" y1="67.2969" y2="87.2969"/><polygon fill="#181818" points="1152.0972,77.2969,1156.0972,87.2969,1160.0972,77.2969,1156.0972,81.2969" style="stroke:#181818;stroke-width:1;"/><line style="stroke:#181818;stroke-width:1;" x1="1156.0972" x2="1156.0972" y1="135.2344" y2="155.2344"/><polygon fill="#181818" points="1152.0972,145.2344,1156.0972,155.2344,1160.0972,145.2344,1156.0972,149.2344" style="stroke:#181818;stroke-width:1;"/><line style="stroke:#181818;stroke-width:1;" x1="203.9331" x2="203.9331" y1="442.0781" y2="477.0781"/><polygon fill="#181818" points="199.9331,467.0781,203.9331,477.0781,207.9331,467.0781,203.9331,471.0781" style="stroke:#181818;stroke-width:1;"/><line style="stroke:#181818;stroke-width:1;" x1="148.0835" x2="105.6387" y1="558.0469" y2="558.0469"/><line style="stroke:#181818;stroke-width:1;" x1="105.6387" x2="105.6387" y1="558.0469" y2="580.0469"/><polygon fill="#181818" points="101.6387,570.0469,105.6387,580.0469,109.6387,570.0469,105.6387,574.0469" style="stroke:#181818;stroke-width:1;"/><line style="stroke:#181818;stroke-width:1;" x1="259.7827" x2="302.2275" y1="558.0469" y2="558.0469"/><line style="stroke:#181818;stroke-width:1;" x1="302.2275" x2="302.2275" y1="558.0469" y2="580.0469"/><polygon fill="#181818" points="298.2275,570.0469,302.2275,580.0469,306.2275,570.0469,302.2275,574.0469" style="stroke:#181818;stroke-width:1;"/><line style="stroke:#181818;stroke-width:1;" x1="105.6387" x2="105.6387" y1="627.9844" y2="645.9844"/><line style="stroke:#181818;stroke-width:1;" x1="105.6387" x2="191.9331" y1="645.9844" y2="645.9844"/><polygon fill="#181818" points="181.9331,641.9844,191.9331,645.9844,181.9331,649.9844,185.9331,645.9844" style="stroke:#181818;stroke-width:1;"/><line style="stroke:#181818;stroke-width:1;" x1="302.2275" x2="302.2275" y1="614.0156" y2="645.9844"/><line style="stroke:#181818;stroke-width:1;" x1="302.2275" x2="215.9331" y1="645.9844" y2="645.9844"/><polygon fill="#181818" points="225.9331,641.9844,215.9331,645.9844,225.9331,649.9844,221.9331,645.9844" style="stroke:#181818;stroke-width:1;"/><line style="stroke:#181818;stroke-width:1;" x1="203.9331" x2="203.9331" y1="511.0469" y2="546.0469"/><polygon fill="#181818" points="199.9331,536.0469,203.9331,546.0469,207.9331,536.0469,203.9331,540.0469" style="stroke:#181818;stroke-width:1;"/><line style="stroke:#181818;stroke-width:1;" x1="203.9331" x2="203.9331" y1="657.9844" y2="692.9844"/><polygon fill="#181818" points="199.9331,682.9844,203.9331,692.9844,207.9331,682.9844,203.9331,686.9844" style="stroke:#181818;stroke-width:1;"/><line style="stroke:#181818;stroke-width:1;" x1="771.0225" x2="771.0225" y1="442.0781" y2="477.0781"/><polygon fill="#181818" points="767.0225,467.0781,771.0225,477.0781,775.0225,467.0781,771.0225,471.0781" style="stroke:#181818;stroke-width:1;"/><line style="stroke:#181818;stroke-width:1;" x1="617.3291" x2="617.3291" y1="627.9844" y2="662.9844"/><polygon fill="#181818" points="613.3291,652.9844,617.3291,662.9844,621.3291,652.9844,617.3291,656.9844" style="stroke:#181818;stroke-width:1;"/><line style="stroke:#181818;stroke-width:1;" x1="617.3291" x2="617.3291" y1="696.9531" y2="731.9531"/><polygon fill="#181818" points="613.3291,721.9531,617.3291,731.9531,621.3291,721.9531,617.3291,725.9531" style="stroke:#181818;stroke-width:1;"/><line style="stroke:#181818;stroke-width:1;" x1="617.3291" x2="617.3291" y1="765.9219" y2="798.9219"/><polygon fill="#181818" points="613.3291,788.9219,617.3291,798.9219,621.3291,788.9219,617.3291,792.9219" style="stroke:#181818;stroke-width:1;"/><line style="stroke:#181818;stroke-width:1;" x1="617.3291" x2="617.3291" y1="832.8906" y2="865.8906"/><polygon fill="#181818" points="613.3291,855.8906,617.3291,865.8906,621.3291,855.8906,617.3291,859.8906" style="stroke:#181818;stroke-width:1;"/><line style="stroke:#181818;stroke-width:1;" x1="617.3291" x2="617.3291" y1="899.8594" y2="920.8281"/><polygon fill="#181818" points="613.3291,910.8281,617.3291,920.8281,621.3291,910.8281,617.3291,914.8281" style="stroke:#181818;stroke-width:1;"/><line style="stroke:#181818;stroke-width:1;" x1="617.3291" x2="617.3291" y1="954.7969" y2="975.7656"/><polygon fill="#181818" points="613.3291,965.7656,617.3291,975.7656,621.3291,965.7656,617.3291,969.7656" style="stroke:#181818;stroke-width:1;"/><line style="stroke:#181818;stroke-width:1;" x1="617.3291" x2="617.3291" y1="1023.7031" y2="1058.7031"/><polygon fill="#181818" points="613.3291,1048.7031,617.3291,1058.7031,621.3291,1048.7031,617.3291,1052.7031" style="stroke:#181818;stroke-width:1;"/><line style="stroke:#181818;stroke-width:1;" x1="500.6172" x2="500.6172" y1="1209.6094" y2="1244.6094"/><polygon fill="#181818" points="496.6172,1234.6094,500.6172,1244.6094,504.6172,1234.6094,500.6172,1238.6094" style="stroke:#181818;stroke-width:1;"/><line style="stroke:#181818;stroke-width:1;" x1="500.6172" x2="500.6172" y1="1278.5781" y2="1298.5781"/><polygon fill="#181818" points="496.6172,1288.5781,500.6172,1298.5781,504.6172,1288.5781,500.6172,1292.5781" style="stroke:#181818;stroke-width:1;"/><line style="stroke:#181818;stroke-width:1;" x1="734.041" x2="734.041" y1="1209.6094" y2="1244.6094"/><polygon fill="#181818" points="730.041,1234.6094,734.041,1244.6094,738.041,1234.6094,734.041,1238.6094" style="stroke:#181818;stroke-width:1;"/><line style="stroke:#181818;stroke-width:1;" x1="523.1353" x2="500.6172" y1="1139.6719" y2="1139.6719"/><line style="stroke:#181818;stroke-width:1;" x1="500.6172" x2="500.6172" y1="1139.6719" y2="1161.6719"/><polygon fill="#181818" points="496.6172,1151.6719,500.6172,1161.6719,504.6172,1151.6719,500.6172,1155.6719" style="stroke:#181818;stroke-width:1;"/><line style="stroke:#181818;stroke-width:1;" x1="711.5229" x2="734.041" y1="1139.6719" y2="1139.6719"/><line style="stroke:#181818;stroke-width:1;" x1="734.041" x2="734.041" y1="1139.6719" y2="1161.6719"/><polygon fill="#181818" points="730.041,1151.6719,734.041,1161.6719,738.041,1151.6719,734.041,1155.6719" style="stroke:#181818;stroke-width:1;"/><line style="stroke:#181818;stroke-width:1;" x1="500.6172" x2="500.6172" y1="1332.5469" y2="1350.5469"/><line style="stroke:#181818;stroke-width:1;" x1="500.6172" x2="605.3291" y1="1350.5469" y2="1350.5469"/><polygon fill="#181818" points="595.3291,1346.5469,605.3291,1350.5469,595.3291,1354.5469,599.3291,1350.5469" style="stroke:#181818;stroke-width:1;"/><line style="stroke:#181818;stroke-width:1;" x1="734.041" x2="734.041" y1="1278.5781" y2="1350.5469"/><line style="stroke:#181818;stroke-width:1;" x1="734.041" x2="629.3291" y1="1350.5469" y2="1350.5469"/><polygon fill="#181818" points="639.3291,1346.5469,629.3291,1350.5469,639.3291,1354.5469,635.3291,1350.5469" style="stroke:#181818;stroke-width:1;"/><line style="stroke:#181818;stroke-width:1;" x1="617.3291" x2="617.3291" y1="1092.6719" y2="1127.6719"/><polygon fill="#181818" points="613.3291,1117.6719,617.3291,1127.6719,621.3291,1117.6719,617.3291,1121.6719" style="stroke:#181818;stroke-width:1;"/><line style="stroke:#181818;stroke-width:1;" x1="714.7351" x2="617.3291" y1="572.0156" y2="572.0156"/><line style="stroke:#181818;stroke-width:1;" x1="617.3291" x2="617.3291" y1="572.0156" y2="594.0156"/><polygon fill="#181818" points="613.3291,584.0156,617.3291,594.0156,621.3291,584.0156,617.3291,588.0156" style="stroke:#181818;stroke-width:1;"/><line style="stroke:#181818;stroke-width:1;" x1="827.3098" x2="924.7158" y1="572.0156" y2="572.0156"/><line style="stroke:#181818;stroke-width:1;" x1="924.7158" x2="924.7158" y1="572.0156" y2="594.0156"/><polygon fill="#181818" points="920.7158,584.0156,924.7158,594.0156,928.7158,584.0156,924.7158,588.0156" style="stroke:#181818;stroke-width:1;"/><line style="stroke:#181818;stroke-width:1;" x1="617.3291" x2="617.3291" y1="1362.5469" y2="1380.5469"/><line style="stroke:#181818;stroke-width:1;" x1="617.3291" x2="759.0225" y1="1380.5469" y2="1380.5469"/><polygon fill="#181818" points="749.0225,1376.5469,759.0225,1380.5469,749.0225,1384.5469,753.0225,1380.5469" style="stroke:#181818;stroke-width:1;"/><line style="stroke:#181818;stroke-width:1;" x1="924.7158" x2="924.7158" y1="627.9844" y2="1380.5469"/><line style="stroke:#181818;stroke-width:1;" x1="924.7158" x2="783.0225" y1="1380.5469" y2="1380.5469"/><polygon fill="#181818" points="793.0225,1376.5469,783.0225,1380.5469,793.0225,1384.5469,789.0225,1380.5469" style="stroke:#181818;stroke-width:1;"/><line style="stroke:#181818;stroke-width:1;" x1="771.0225" x2="771.0225" y1="525.0156" y2="560.0156"/><polygon fill="#181818" points="767.0225,550.0156,771.0225,560.0156,775.0225,550.0156,771.0225,554.0156" style="stroke:#181818;stroke-width:1;"/><line style="stroke:#181818;stroke-width:1;" x1="408.7842" x2="203.9331" y1="372.1406" y2="372.1406"/><line style="stroke:#181818;stroke-width:1;" x1="203.9331" x2="203.9331" y1="372.1406" y2="394.1406"/><polygon fill="#181818" points="199.9331,384.1406,203.9331,394.1406,207.9331,384.1406,203.9331,388.1406" style="stroke:#181818;stroke-width:1;"/><line style="stroke:#181818;stroke-width:1;" x1="526.1714" x2="771.0225" y1="372.1406" y2="372.1406"/><line style="stroke:#181818;stroke-width:1;" x1="771.0225" x2="771.0225" y1="372.1406" y2="394.1406"/><polygon fill="#181818" points="767.0225,384.1406,771.0225,394.1406,775.0225,384.1406,771.0225,388.1406" style="stroke:#181818;stroke-width:1;"/><line style="stroke:#181818;stroke-width:1;" x1="203.9331" x2="203.9331" y1="740.9219" y2="1410.5469"/><line style="stroke:#181818;stroke-width:1;" x1="203.9331" x2="455.4778" y1="1410.5469" y2="1410.5469"/><polygon fill="#181818" points="445.4778,1406.5469,455.4778,1410.5469,445.4778,1414.5469,449.4778,1410.5469" style="stroke:#181818;stroke-width:1;"/><line style="stroke:#181818;stroke-width:1;" x1="771.0225" x2="771.0225" y1="1392.5469" y2="1410.5469"/><line style="stroke:#181818;stroke-width:1;" x1="771.0225" x2="479.4778" y1="1410.5469" y2="1410.5469"/><polygon fill="#181818" points="489.4778,1406.5469,479.4778,1410.5469,489.4778,1414.5469,485.4778,1410.5469" style="stroke:#181818;stroke-width:1;"/><line style="stroke:#181818;stroke-width:1;" x1="467.4778" x2="467.4778" y1="325.1406" y2="360.1406"/><polygon fill="#181818" points="463.4778,350.1406,467.4778,360.1406,471.4778,350.1406,467.4778,354.1406" style="stroke:#181818;stroke-width:1;"/><line style="stroke:#181818;stroke-width:1;" x1="1062.0068" x2="1062.0068" y1="325.1406" y2="360.1406"/><polygon fill="#181818" points="1058.0068,350.1406,1062.0068,360.1406,1066.0068,350.1406,1062.0068,354.1406" style="stroke:#181818;stroke-width:1;"/><line style="stroke:#181818;stroke-width:1;" x1="738.3624" x2="467.4778" y1="255.2031" y2="255.2031"/><line style="stroke:#181818;stroke-width:1;" x1="467.4778" x2="467.4778" y1="255.2031" y2="277.2031"/><polygon fill="#181818" points="463.4778,267.2031,467.4778,277.2031,471.4778,267.2031,467.4778,271.2031" style="stroke:#181818;stroke-width:1;"/><line style="stroke:#181818;stroke-width:1;" x1="821.1222" x2="1062.0068" y1="255.2031" y2="255.2031"/><line style="stroke:#181818;stroke-width:1;" x1="1062.0068" x2="1062.0068" y1="255.2031" y2="277.2031"/><polygon fill="#181818" points="1058.0068,267.2031,1062.0068,277.2031,1066.0068,267.2031,1062.0068,271.2031" style="stroke:#181818;stroke-width:1;"/><line style="stroke:#181818;stroke-width:1;" x1="467.4778" x2="467.4778" y1="1422.5469" y2="1440.5469"/><line style="stroke:#181818;stroke-width:1;" x1="467.4778" x2="767.7423" y1="1440.5469" y2="1440.5469"/><polygon fill="#181818" points="757.7423,1436.5469,767.7423,1440.5469,757.7423,1444.5469,761.7423,1440.5469" style="stroke:#181818;stroke-width:1;"/><line style="stroke:#181818;stroke-width:1;" x1="1062.0068" x2="1062.0068" y1="394.1094" y2="1440.5469"/><line style="stroke:#181818;stroke-width:1;" x1="1062.0068" x2="791.7423" y1="1440.5469" y2="1440.5469"/><polygon fill="#181818" points="801.7423,1436.5469,791.7423,1440.5469,801.7423,1444.5469,797.7423,1440.5469" style="stroke:#181818;stroke-width:1;"/><line style="stroke:#181818;stroke-width:1;" x1="1562.4521" x2="1562.4521" y1="291.1406" y2="326.1406"/><polygon fill="#181818" points="1558.4521,316.1406,1562.4521,326.1406,1566.4521,316.1406,1562.4521,320.1406" style="stroke:#181818;stroke-width:1;"/><line style="stroke:#181818;stroke-width:1;" x1="1408.7588" x2="1408.7588" y1="477.0469" y2="512.0469"/><polygon fill="#181818" points="1404.7588,502.0469,1408.7588,512.0469,1412.7588,502.0469,1408.7588,506.0469" style="stroke:#181818;stroke-width:1;"/><line style="stroke:#181818;stroke-width:1;" x1="1408.7588" x2="1408.7588" y1="546.0156" y2="581.0156"/><polygon fill="#181818" points="1404.7588,571.0156,1408.7588,581.0156,1412.7588,571.0156,1408.7588,575.0156" style="stroke:#181818;stroke-width:1;"/><line style="stroke:#181818;stroke-width:1;" x1="1408.7588" x2="1408.7588" y1="614.9844" y2="649.9844"/><polygon fill="#181818" points="1404.7588,639.9844,1408.7588,649.9844,1412.7588,639.9844,1408.7588,643.9844" style="stroke:#181818;stroke-width:1;"/><line style="stroke:#181818;stroke-width:1;" x1="1408.7588" x2="1408.7588" y1="683.9531" y2="718.9531"/><polygon fill="#181818" points="1404.7588,708.9531,1408.7588,718.9531,1412.7588,708.9531,1408.7588,712.9531" style="stroke:#181818;stroke-width:1;"/><line style="stroke:#181818;stroke-width:1;" x1="1408.7588" x2="1408.7588" y1="752.9219" y2="785.9219"/><polygon fill="#181818" points="1404.7588,775.9219,1408.7588,785.9219,1412.7588,775.9219,1408.7588,779.9219" style="stroke:#181818;stroke-width:1;"/><line style="stroke:#181818;stroke-width:1;" x1="1408.7588" x2="1408.7588" y1="819.8906" y2="852.8906"/><polygon fill="#181818" points="1404.7588,842.8906,1408.7588,852.8906,1412.7588,842.8906,1408.7588,846.8906" style="stroke:#181818;stroke-width:1;"/><line style="stroke:#181818;stroke-width:1;" x1="1408.7588" x2="1408.7588" y1="900.8281" y2="921.7969"/><polygon fill="#181818" points="1404.7588,911.7969,1408.7588,921.7969,1412.7588,911.7969,1408.7588,915.7969" style="stroke:#181818;stroke-width:1;"/><line style="stroke:#181818;stroke-width:1;" x1="1292.0469" x2="1292.0469" y1="1058.6719" y2="1093.6719"/><polygon fill="#181818" points="1288.0469,1083.6719,1292.0469,1093.6719,1296.0469,1083.6719,1292.0469,1087.6719" style="stroke:#181818;stroke-width:1;"/><line style="stroke:#181818;stroke-width:1;" x1="1292.0469" x2="1292.0469" y1="1127.6406" y2="1162.6406"/><polygon fill="#181818" points="1288.0469,1152.6406,1292.0469,1162.6406,1296.0469,1152.6406,1292.0469,1156.6406" style="stroke:#181818;stroke-width:1;"/><line style="stroke:#181818;stroke-width:1;" x1="1525.4707" x2="1525.4707" y1="1058.6719" y2="1093.6719"/><polygon fill="#181818" points="1521.4707,1083.6719,1525.4707,1093.6719,1529.4707,1083.6719,1525.4707,1087.6719" style="stroke:#181818;stroke-width:1;"/><line style="stroke:#181818;stroke-width:1;" x1="1314.5649" x2="1292.0469" y1="988.7344" y2="988.7344"/><line style="stroke:#181818;stroke-width:1;" x1="1292.0469" x2="1292.0469" y1="988.7344" y2="1010.7344"/><polygon fill="#181818" points="1288.0469,1000.7344,1292.0469,1010.7344,1296.0469,1000.7344,1292.0469,1004.7344" style="stroke:#181818;stroke-width:1;"/><line style="stroke:#181818;stroke-width:1;" x1="1502.9526" x2="1525.4707" y1="988.7344" y2="988.7344"/><line style="stroke:#181818;stroke-width:1;" x1="1525.4707" x2="1525.4707" y1="988.7344" y2="1010.7344"/><polygon fill="#181818" points="1521.4707,1000.7344,1525.4707,1010.7344,1529.4707,1000.7344,1525.4707,1004.7344" style="stroke:#181818;stroke-width:1;"/><line style="stroke:#181818;stroke-width:1;" x1="1292.0469" x2="1292.0469" y1="1196.6094" y2="1214.6094"/><line style="stroke:#181818;stroke-width:1;" x1="1292.0469" x2="1396.7588" y1="1214.6094" y2="1214.6094"/><polygon fill="#181818" points="1386.7588,1210.6094,1396.7588,1214.6094,1386.7588,1218.6094,1390.7588,1214.6094" style="stroke:#181818;stroke-width:1;"/><line style="stroke:#181818;stroke-width:1;" x1="1525.4707" x2="1525.4707" y1="1127.6406" y2="1214.6094"/><line style="stroke:#181818;stroke-width:1;" x1="1525.4707" x2="1420.7588" y1="1214.6094" y2="1214.6094"/><polygon fill="#181818" points="1430.7588,1210.6094,1420.7588,1214.6094,1430.7588,1218.6094,1426.7588,1214.6094" style="stroke:#181818;stroke-width:1;"/><line style="stroke:#181818;stroke-width:1;" x1="1408.7588" x2="1408.7588" y1="955.7656" y2="976.7344"/><polygon fill="#181818" points="1404.7588,966.7344,1408.7588,976.7344,1412.7588,966.7344,1408.7588,970.7344" style="stroke:#181818;stroke-width:1;"/><line style="stroke:#181818;stroke-width:1;" x1="1506.1648" x2="1408.7588" y1="421.0781" y2="421.0781"/><line style="stroke:#181818;stroke-width:1;" x1="1408.7588" x2="1408.7588" y1="421.0781" y2="443.0781"/><polygon fill="#181818" points="1404.7588,433.0781,1408.7588,443.0781,1412.7588,433.0781,1408.7588,437.0781" style="stroke:#181818;stroke-width:1;"/><line style="stroke:#181818;stroke-width:1;" x1="1618.7395" x2="1716.1455" y1="421.0781" y2="421.0781"/><line style="stroke:#181818;stroke-width:1;" x1="1716.1455" x2="1716.1455" y1="421.0781" y2="443.0781"/><polygon fill="#181818" points="1712.1455,433.0781,1716.1455,443.0781,1720.1455,433.0781,1716.1455,437.0781" style="stroke:#181818;stroke-width:1;"/><line style="stroke:#181818;stroke-width:1;" x1="1408.7588" x2="1408.7588" y1="1226.6094" y2="1244.6094"/><line style="stroke:#181818;stroke-width:1;" x1="1408.7588" x2="1550.4521" y1="1244.6094" y2="1244.6094"/><polygon fill="#181818" points="1540.4521,1240.6094,1550.4521,1244.6094,1540.4521,1248.6094,1544.4521,1244.6094" style="stroke:#181818;stroke-width:1;"/><line style="stroke:#181818;stroke-width:1;" x1="1716.1455" x2="1716.1455" y1="477.0469" y2="1244.6094"/><line style="stroke:#181818;stroke-width:1;" x1="1716.1455" x2="1574.4521" y1="1244.6094" y2="1244.6094"/><polygon fill="#181818" points="1584.4521,1240.6094,1574.4521,1244.6094,1584.4521,1248.6094,1580.4521,1244.6094" style="stroke:#181818;stroke-width:1;"/><line style="stroke:#181818;stroke-width:1;" x1="1562.4521" x2="1562.4521" y1="374.0781" y2="409.0781"/><polygon fill="#181818" points="1558.4521,399.0781,1562.4521,409.0781,1566.4521,399.0781,1562.4521,403.0781" style="stroke:#181818;stroke-width:1;"/><line style="stroke:#181818;stroke-width:1;" x1="1097.4493" x2="779.7423" y1="221.2031" y2="221.2031"/><line style="stroke:#181818;stroke-width:1;" x1="779.7423" x2="779.7423" y1="221.2031" y2="243.2031"/><polygon fill="#181818" points="775.7423,233.2031,779.7423,243.2031,783.7423,233.2031,779.7423,237.2031" style="stroke:#181818;stroke-width:1;"/><line style="stroke:#181818;stroke-width:1;" x1="1214.7452" x2="1562.4521" y1="221.2031" y2="221.2031"/><line style="stroke:#181818;stroke-width:1;" x1="1562.4521" x2="1562.4521" y1="221.2031" y2="243.2031"/><polygon fill="#181818" points="1558.4521,233.2031,1562.4521,243.2031,1566.4521,233.2031,1562.4521,237.2031" style="stroke:#181818;stroke-width:1;"/><line style="stroke:#181818;stroke-width:1;" x1="779.7423" x2="779.7423" y1="1452.5469" y2="1470.5469"/><line style="stroke:#181818;stroke-width:1;" x1="779.7423" x2="1144.0972" y1="1470.5469" y2="1470.5469"/><polygon fill="#181818" points="1134.0972,1466.5469,1144.0972,1470.5469,1134.0972,1474.5469,1138.0972,1470.5469" style="stroke:#181818;stroke-width:1;"/><line style="stroke:#181818;stroke-width:1;" x1="1562.4521" x2="1562.4521" y1="1256.6094" y2="1470.5469"/><line style="stroke:#181818;stroke-width:1;" x1="1562.4521" x2="1168.0972" y1="1470.5469" y2="1470.5469"/><polygon fill="#181818" points="1178.0972,1466.5469,1168.0972,1470.5469,1178.0972,1474.5469,1174.0972,1470.5469" style="stroke:#181818;stroke-width:1;"/><line style="stroke:#181818;stroke-width:1;" x1="1156.0972" x2="1156.0972" y1="189.2031" y2="209.2031"/><polygon fill="#181818" points="1152.0972,199.2031,1156.0972,209.2031,1160.0972,199.2031,1156.0972,203.2031" style="stroke:#181818;stroke-width:1;"/><line style="stroke:#181818;stroke-width:1;" x1="1156.0972" x2="1156.0972" y1="1482.5469" y2="1502.5469"/><polygon fill="#181818" points="1152.0972,1492.5469,1156.0972,1502.5469,1160.0972,1492.5469,1156.0972,1496.5469" style="stroke:#181818;stroke-width:1;"/><!--SRC=[dLNRYjj037ttLuWyb8HbyNlyiBJGBKi33RaK2e55iPLawhcOcN7J_dtbsoIRE9VTbpYsf3FIqJcs5ruIF4kpJtTeFJp2r1f73YPcApGCQOwsi3YA8kSv7esNZYmeqblXn4gNVATH4No20ftR6vibqNZwOxw0M5O8IHI93GphganuKcME-ca4VaUC_ek10K82vbviJeBZdoX5Xaw40rPwk4xjly93QbI1baP92p9jCs1D6kq944FDoGFFveJHJUil6JTU_PaPIKcJj2moz0GIdNzjHwYUL_WpKgJMzVndu5pvZJJPgjPsUTxaf9ELhWvEZSd58VRQnEfQaevWkE0nym0seJrwSGhLfEjCR9fcPvG9IsazLecSpdCmFvWfeUE2VBb5nrU- -usgvkdihF4pZxe3ijRObHuikusYnp9m3WubxWOjHGjKXP2yI315fOB1f2mmv3uD3eoz3VHnzfMLiZ5sQ_pZGK5jy4KNfOTEOp4f53846v5TAZtQXMFoQ_RW0UXlmNo5hE_22WKrRfieXSv3-0kBjNu2SHqDnyJZetM4HWDPQxJbIZz0RlH6MCNYFUdwAbh5swBkzqybVLReccIfsjxxM3oeDhJGMMJ7knsn0bD9Q8_9I0wrZG1ScRE8ZXu7RSL7DkWLwvc8clPzbTCC4UUKeIptQ1qEUi-uiCY3rljCqjjYLnAkDnJ_EIyrlvkqqVNxXsNTwRm7lW4zWNolXUuoq6txN37F5UjSCyuzjhbgcZijSwzXRjlb_MRvk5LwZN91WprY_OX5RXdaiiOlQxV-vS-vAVu3]--></g></svg>