<svg xmlns="http://www.w3.org/2000/svg" xmlns:xlink="http://www.w3.org/1999/xlink" contentStyleType="text/css" data-diagram-type="ACTIVITY" height="838px" preserveAspectRatio="none" style="width:1052px;height:838px;background:#FFFFFF;" version="1.1" viewBox="0 0 1052 838" width="1052px" zoomAndPan="magnify"><title>Flowchart - Proses Login (eSarpra)</title><defs/><g><g class="title" data-source-line="1"><text fill="#000000" font-family="sans-serif" font-size="14" font-weight="bold" lengthAdjust="spacing" textLength="274.9004" x="387.2021" y="32.9951">Flowchart - Proses Login (eSarpra)</text></g><ellipse cx="731.1085" cy="57.2969" fill="#222222" rx="10" ry="10" style="stroke:#222222;stroke-width:1;"/><rect fill="#F1F1F1" height="47.9375" rx="12.5" ry="12.5" style="stroke:#181818;stroke-width:0.5;" width="154.373" x="653.9219" y="87.2969"/><text fill="#000000" font-family="sans-serif" font-size="12" lengthAdjust="spacing" textLength="78.3809" x="663.9219" y="108.4355">User mengisi</text><text fill="#000000" font-family="sans-serif" font-size="12" lengthAdjust="spacing" textLength="134.373" x="663.9219" y="122.4043">username &amp; password</text><rect fill="#F1F1F1" height="33.9688" rx="12.5" ry="12.5" style="stroke:#181818;stroke-width:0.5;" width="88.7188" x="686.7491" y="155.2344"/><text fill="#000000" font-family="sans-serif" font-size="12" lengthAdjust="spacing" textLength="68.7188" x="696.7491" y="176.373">POST /login</text><polygon fill="#F1F1F1" points="684.4605,209.2031,777.7564,209.2031,789.7564,221.2031,777.7564,233.2031,684.4605,233.2031,672.4605,221.2031,684.4605,209.2031" style="stroke:#181818;stroke-width:0.5;"/><text fill="#000000" font-family="sans-serif" font-size="11" lengthAdjust="spacing" textLength="93.2959" x="684.4605" y="225.0112">User ditemukan?</text><text fill="#000000" font-family="sans-serif" font-size="11" lengthAdjust="spacing" textLength="13.46" x="659.0005" y="218.6089">Ya</text><text fill="#000000" font-family="sans-serif" font-size="11" lengthAdjust="spacing" textLength="29.8687" x="789.7564" y="218.6089">Tidak</text><polygon fill="#F1F1F1" points="521.5138,243.2031,580.2736,243.2031,592.2736,255.2031,580.2736,267.2031,521.5138,267.2031,509.5138,255.2031,521.5138,243.2031" style="stroke:#181818;stroke-width:0.5;"/><text fill="#000000" font-family="sans-serif" font-size="11" lengthAdjust="spacing" textLength="58.7598" x="521.5138" y="259.0112">User aktif?</text><text fill="#000000" font-family="sans-serif" font-size="11" lengthAdjust="spacing" textLength="13.46" x="496.0538" y="252.6089">Ya</text><text fill="#000000" font-family="sans-serif" font-size="11" lengthAdjust="spacing" textLength="29.8687" x="592.2736" y="252.6089">Tidak</text><rect fill="#F1F1F1" height="47.9375" rx="12.5" ry="12.5" style="stroke:#181818;stroke-width:0.5;" width="127.7832" x="300.1545" y="277.2031"/><text fill="#000000" font-family="sans-serif" font-size="12" lengthAdjust="spacing" textLength="107.7832" x="310.1545" y="298.3418">Validasi password</text><text fill="#000000" font-family="sans-serif" font-size="12" lengthAdjust="spacing" textLength="104.666" x="310.1545" y="312.3105">(bcrypt compare)</text><polygon fill="#F1F1F1" points="317.3525,360.1406,410.7397,360.1406,422.7397,372.1406,410.7397,384.1406,317.3525,384.1406,305.3525,372.1406,317.3525,360.1406" style="stroke:#181818;stroke-width:0.5;"/><text fill="#000000" font-family="sans-serif" font-size="11" lengthAdjust="spacing" textLength="93.3872" x="317.3525" y="375.9487">Password benar?</text><text fill="#000000" font-family="sans-serif" font-size="11" lengthAdjust="spacing" textLength="13.46" x="291.8926" y="369.5464">Ya</text><text fill="#000000" font-family="sans-serif" font-size="11" lengthAdjust="spacing" textLength="29.8687" x="422.7397" y="369.5464">Tidak</text><rect fill="#F1F1F1" height="47.9375" rx="12.5" ry="12.5" style="stroke:#181818;stroke-width:0.5;" width="126.8867" x="140.4897" y="394.1406"/><text fill="#000000" font-family="sans-serif" font-size="12" lengthAdjust="spacing" textLength="67.9395" x="150.4897" y="415.2793">Set session</text><text fill="#000000" font-family="sans-serif" font-size="12" lengthAdjust="spacing" textLength="106.8867" x="150.4897" y="429.248">userId &amp; userRole</text><rect fill="#F1F1F1" height="33.9688" rx="12.5" ry="12.5" style="stroke:#181818;stroke-width:0.5;" width="124.1504" x="141.8579" y="462.0781"/><text fill="#000000" font-family="sans-serif" font-size="12" lengthAdjust="spacing" textLength="104.1504" x="151.8579" y="483.2168">Update last_login</text><polygon fill="#F1F1F1" points="160.0835,516.0469,247.7827,516.0469,259.7827,528.0469,247.7827,540.0469,160.0835,540.0469,148.0835,528.0469,160.0835,516.0469" style="stroke:#181818;stroke-width:0.5;"/><text fill="#000000" font-family="sans-serif" font-size="11" lengthAdjust="spacing" textLength="87.6992" x="160.0835" y="531.855">Remember me?</text><text fill="#000000" font-family="sans-serif" font-size="11" lengthAdjust="spacing" textLength="13.46" x="134.6235" y="525.4526">Ya</text><text fill="#000000" font-family="sans-serif" font-size="11" lengthAdjust="spacing" textLength="29.8687" x="259.7827" y="525.4526">Tidak</text><rect fill="#F1F1F1" height="47.9375" rx="12.5" ry="12.5" style="stroke:#181818;stroke-width:0.5;" width="189.2773" x="11" y="550.0469"/><text fill="#000000" font-family="sans-serif" font-size="12" lengthAdjust="spacing" textLength="164.7129" x="21" y="571.1855">Generate remember token;</text><text fill="#000000" font-family="sans-serif" font-size="12" lengthAdjust="spacing" textLength="169.2773" x="21" y="585.1543">Set cookie remember_token</text><rect fill="#F1F1F1" height="33.9688" rx="12.5" ry="12.5" style="stroke:#181818;stroke-width:0.5;" width="163.9004" x="220.2773" y="550.0469"/><text fill="#000000" font-family="sans-serif" font-size="12" lengthAdjust="spacing" textLength="143.9004" x="230.2773" y="571.1855">Lewati remember token</text><polygon fill="#F1F1F1" points="203.9331,603.9844,215.9331,615.9844,203.9331,627.9844,191.9331,615.9844,203.9331,603.9844" style="stroke:#181818;stroke-width:0.5;"/><rect fill="#F1F1F1" height="47.9375" rx="12.5" ry="12.5" style="stroke:#181818;stroke-width:0.5;" width="183.5879" x="112.1392" y="647.9844"/><text fill="#000000" font-family="sans-serif" font-size="12" lengthAdjust="spacing" textLength="119.0918" x="122.1392" y="669.123">Redirect sesuai role</text><text fill="#000000" font-family="sans-serif" font-size="12" lengthAdjust="spacing" textLength="163.5879" x="122.1392" y="683.0918">(admin/petugas/peminjam)</text><rect fill="#F1F1F1" height="47.9375" rx="12.5" ry="12.5" style="stroke:#181818;stroke-width:0.5;" width="219.9629" x="414.1777" y="394.1406"/><text fill="#000000" font-family="sans-serif" font-size="12" lengthAdjust="spacing" textLength="64.7871" x="424.1777" y="415.2793">Flash error</text><text fill="#000000" font-family="sans-serif" font-size="12" lengthAdjust="spacing" textLength="199.9629" x="424.1777" y="429.248">"Username atau password salah"</text><rect fill="#F1F1F1" height="33.9688" rx="12.5" ry="12.5" style="stroke:#181818;stroke-width:0.5;" width="107.3809" x="470.4688" y="462.0781"/><text fill="#000000" font-family="sans-serif" font-size="12" lengthAdjust="spacing" textLength="87.3809" x="480.4688" y="483.2168">Redirect /login</text><polygon fill="#F1F1F1" points="364.0461,701.9219,376.0461,713.9219,364.0461,725.9219,352.0461,713.9219,364.0461,701.9219" style="stroke:#181818;stroke-width:0.5;"/><rect fill="#F1F1F1" height="47.9375" rx="12.5" ry="12.5" style="stroke:#181818;stroke-width:0.5;" width="147.2012" x="644.1406" y="277.2031"/><text fill="#000000" font-family="sans-serif" font-size="12" lengthAdjust="spacing" textLength="64.7871" x="654.1406" y="298.3418">Flash error</text><text fill="#000000" font-family="sans-serif" font-size="12" lengthAdjust="spacing" textLength="127.2012" x="654.1406" y="312.3105">"Akun dinonaktifkan"</text><rect fill="#F1F1F1" height="33.9688" rx="12.5" ry="12.5" style="stroke:#181818;stroke-width:0.5;" width="107.3809" x="664.0508" y="360.1406"/><text fill="#000000" font-family="sans-serif" font-size="12" lengthAdjust="spacing" textLength="87.3809" x="674.0508" y="381.2793">Redirect /login</text><polygon fill="#F1F1F1" points="550.8937,731.9219,562.8937,743.9219,550.8937,755.9219,538.8937,743.9219,550.8937,731.9219" style="stroke:#181818;stroke-width:0.5;"/><rect fill="#F1F1F1" height="47.9375" rx="12.5" ry="12.5" style="stroke:#181818;stroke-width:0.5;" width="219.9629" x="821.3418" y="243.2031"/><text fill="#000000" font-family="sans-serif" font-size="12" lengthAdjust="spacing" textLength="64.7871" x="831.3418" y="264.3418">Flash error</text><text fill="#000000" font-family="sans-serif" font-size="12" lengthAdjust="spacing" textLength="199.9629" x="831.3418" y="278.3105">"Username atau password salah"</text><rect fill="#F1F1F1" height="33.9688" rx="12.5" ry="12.5" style="stroke:#181818;stroke-width:0.5;" width="107.3809" x="877.6328" y="326.1406"/><text fill="#000000" font-family="sans-serif" font-size="12" lengthAdjust="spacing" textLength="87.3809" x="887.6328" y="347.2793">Redirect /login</text><polygon fill="#F1F1F1" points="731.1085,761.9219,743.1085,773.9219,731.1085,785.9219,719.1085,773.9219,731.1085,761.9219" style="stroke:#181818;stroke-width:0.5;"/><ellipse cx="731.1085" cy="816.9219" fill="none" rx="11" ry="11" style="stroke:#222222;stroke-width:1;"/><ellipse cx="731.1085" cy="816.9219" fill="#222222" rx="6" ry="6" style="stroke:#222222;stroke-width:1;"/><line style="stroke:#181818;stroke-width:1;" x1="731.1085" x2="731.1085" y1="67.2969" y2="87.2969"/><polygon fill="#181818" points="727.1085,77.2969,731.1085,87.2969,735.1085,77.2969,731.1085,81.2969" style="stroke:#181818;stroke-width:1;"/><line style="stroke:#181818;stroke-width:1;" x1="731.1085" x2="731.1085" y1="135.2344" y2="155.2344"/><polygon fill="#181818" points="727.1085,145.2344,731.1085,155.2344,735.1085,145.2344,731.1085,149.2344" style="stroke:#181818;stroke-width:1;"/><line style="stroke:#181818;stroke-width:1;" x1="203.9331" x2="203.9331" y1="442.0781" y2="462.0781"/><polygon fill="#181818" points="199.9331,452.0781,203.9331,462.0781,207.9331,452.0781,203.9331,456.0781" style="stroke:#181818;stroke-width:1;"/><line style="stroke:#181818;stroke-width:1;" x1="148.0835" x2="105.6387" y1="528.0469" y2="528.0469"/><line style="stroke:#181818;stroke-width:1;" x1="105.6387" x2="105.6387" y1="528.0469" y2="550.0469"/><polygon fill="#181818" points="101.6387,540.0469,105.6387,550.0469,109.6387,540.0469,105.6387,544.0469" style="stroke:#181818;stroke-width:1;"/><line style="stroke:#181818;stroke-width:1;" x1="259.7827" x2="302.2275" y1="528.0469" y2="528.0469"/><line style="stroke:#181818;stroke-width:1;" x1="302.2275" x2="302.2275" y1="528.0469" y2="550.0469"/><polygon fill="#181818" points="298.2275,540.0469,302.2275,550.0469,306.2275,540.0469,302.2275,544.0469" style="stroke:#181818;stroke-width:1;"/><line style="stroke:#181818;stroke-width:1;" x1="105.6387" x2="105.6387" y1="597.9844" y2="615.9844"/><line style="stroke:#181818;stroke-width:1;" x1="105.6387" x2="191.9331" y1="615.9844" y2="615.9844"/><polygon fill="#181818" points="181.9331,611.9844,191.9331,615.9844,181.9331,619.9844,185.9331,615.9844" style="stroke:#181818;stroke-width:1;"/><line style="stroke:#181818;stroke-width:1;" x1="302.2275" x2="302.2275" y1="584.0156" y2="615.9844"/><line style="stroke:#181818;stroke-width:1;" x1="302.2275" x2="215.9331" y1="615.9844" y2="615.9844"/><polygon fill="#181818" points="225.9331,611.9844,215.9331,615.9844,225.9331,619.9844,221.9331,615.9844" style="stroke:#181818;stroke-width:1;"/><line style="stroke:#181818;stroke-width:1;" x1="203.9331" x2="203.9331" y1="496.0469" y2="516.0469"/><polygon fill="#181818" points="199.9331,506.0469,203.9331,516.0469,207.9331,506.0469,203.9331,510.0469" style="stroke:#181818;stroke-width:1;"/><line style="stroke:#181818;stroke-width:1;" x1="203.9331" x2="203.9331" y1="627.9844" y2="647.9844"/><polygon fill="#181818" points="199.9331,637.9844,203.9331,647.9844,207.9331,637.9844,203.9331,641.9844" style="stroke:#181818;stroke-width:1;"/><line style="stroke:#181818;stroke-width:1;" x1="524.1592" x2="524.1592" y1="442.0781" y2="462.0781"/><polygon fill="#181818" points="520.1592,452.0781,524.1592,462.0781,528.1592,452.0781,524.1592,456.0781" style="stroke:#181818;stroke-width:1;"/><line style="stroke:#181818;stroke-width:1;" x1="305.3525" x2="203.9331" y1="372.1406" y2="372.1406"/><line style="stroke:#181818;stroke-width:1;" x1="203.9331" x2="203.9331" y1="372.1406" y2="394.1406"/><polygon fill="#181818" points="199.9331,384.1406,203.9331,394.1406,207.9331,384.1406,203.9331,388.1406" style="stroke:#181818;stroke-width:1;"/><line style="stroke:#181818;stroke-width:1;" x1="422.7397" x2="524.1592" y1="372.1406" y2="372.1406"/><line style="stroke:#181818;stroke-width:1;" x1="524.1592" x2="524.1592" y1="372.1406" y2="394.1406"/><polygon fill="#181818" points="520.1592,384.1406,524.1592,394.1406,528.1592,384.1406,524.1592,388.1406" style="stroke:#181818;stroke-width:1;"/><line style="stroke:#181818;stroke-width:1;" x1="203.9331" x2="203.9331" y1="695.9219" y2="713.9219"/><line style="stroke:#181818;stroke-width:1;" x1="203.9331" x2="352.0461" y1="713.9219" y2="713.9219"/><polygon fill="#181818" points="342.0461,709.9219,352.0461,713.9219,342.0461,717.9219,346.0461,713.9219" style="stroke:#181818;stroke-width:1;"/><line style="stroke:#181818;stroke-width:1;" x1="524.1592" x2="524.1592" y1="496.0469" y2="713.9219"/><line style="stroke:#181818;stroke-width:1;" x1="524.1592" x2="376.0461" y1="713.9219" y2="713.9219"/><polygon fill="#181818" points="386.0461,709.9219,376.0461,713.9219,386.0461,717.9219,382.0461,713.9219" style="stroke:#181818;stroke-width:1;"/><line style="stroke:#181818;stroke-width:1;" x1="364.0461" x2="364.0461" y1="325.1406" y2="360.1406"/><polygon fill="#181818" points="360.0461,350.1406,364.0461,360.1406,368.0461,350.1406,364.0461,354.1406" style="stroke:#181818;stroke-width:1;"/><line style="stroke:#181818;stroke-width:1;" x1="717.7412" x2="717.7412" y1="325.1406" y2="360.1406"/><polygon fill="#181818" points="713.7412,350.1406,717.7412,360.1406,721.7412,350.1406,717.7412,354.1406" style="stroke:#181818;stroke-width:1;"/><line style="stroke:#181818;stroke-width:1;" x1="509.5138" x2="364.0461" y1="255.2031" y2="255.2031"/><line style="stroke:#181818;stroke-width:1;" x1="364.0461" x2="364.0461" y1="255.2031" y2="277.2031"/><polygon fill="#181818" points="360.0461,267.2031,364.0461,277.2031,368.0461,267.2031,364.0461,271.2031" style="stroke:#181818;stroke-width:1;"/><line style="stroke:#181818;stroke-width:1;" x1="592.2736" x2="717.7412" y1="255.2031" y2="255.2031"/><line style="stroke:#181818;stroke-width:1;" x1="717.7412" x2="717.7412" y1="255.2031" y2="277.2031"/><polygon fill="#181818" points="713.7412,267.2031,717.7412,277.2031,721.7412,267.2031,717.7412,271.2031" style="stroke:#181818;stroke-width:1;"/><line style="stroke:#181818;stroke-width:1;" x1="364.0461" x2="364.0461" y1="725.9219" y2="743.9219"/><line style="stroke:#181818;stroke-width:1;" x1="364.0461" x2="538.8937" y1="743.9219" y2="743.9219"/><polygon fill="#181818" points="528.8937,739.9219,538.8937,743.9219,528.8937,747.9219,532.8937,743.9219" style="stroke:#181818;stroke-width:1;"/><line style="stroke:#181818;stroke-width:1;" x1="717.7412" x2="717.7412" y1="394.1094" y2="743.9219"/><line style="stroke:#181818;stroke-width:1;" x1="717.7412" x2="562.8937" y1="743.9219" y2="743.9219"/><polygon fill="#181818" points="572.8937,739.9219,562.8937,743.9219,572.8937,747.9219,568.8937,743.9219" style="stroke:#181818;stroke-width:1;"/><line style="stroke:#181818;stroke-width:1;" x1="931.3232" x2="931.3232" y1="291.1406" y2="326.1406"/><polygon fill="#181818" points="927.3232,316.1406,931.3232,326.1406,935.3232,316.1406,931.3232,320.1406" style="stroke:#181818;stroke-width:1;"/><line style="stroke:#181818;stroke-width:1;" x1="672.4605" x2="550.8937" y1="221.2031" y2="221.2031"/><line style="stroke:#181818;stroke-width:1;" x1="550.8937" x2="550.8937" y1="221.2031" y2="243.2031"/><polygon fill="#181818" points="546.8937,233.2031,550.8937,243.2031,554.8937,233.2031,550.8937,237.2031" style="stroke:#181818;stroke-width:1;"/><line style="stroke:#181818;stroke-width:1;" x1="789.7564" x2="931.3232" y1="221.2031" y2="221.2031"/><line style="stroke:#181818;stroke-width:1;" x1="931.3232" x2="931.3232" y1="221.2031" y2="243.2031"/><polygon fill="#181818" points="927.3232,233.2031,931.3232,243.2031,935.3232,233.2031,931.3232,237.2031" style="stroke:#181818;stroke-width:1;"/><line style="stroke:#181818;stroke-width:1;" x1="550.8937" x2="550.8937" y1="755.9219" y2="773.9219"/><line style="stroke:#181818;stroke-width:1;" x1="550.8937" x2="719.1085" y1="773.9219" y2="773.9219"/><polygon fill="#181818" points="709.1085,769.9219,719.1085,773.9219,709.1085,777.9219,713.1085,773.9219" style="stroke:#181818;stroke-width:1;"/><line style="stroke:#181818;stroke-width:1;" x1="931.3232" x2="931.3232" y1="360.1094" y2="773.9219"/><line style="stroke:#181818;stroke-width:1;" x1="931.3232" x2="743.1085" y1="773.9219" y2="773.9219"/><polygon fill="#181818" points="753.1085,769.9219,743.1085,773.9219,753.1085,777.9219,749.1085,773.9219" style="stroke:#181818;stroke-width:1;"/><line style="stroke:#181818;stroke-width:1;" x1="731.1085" x2="731.1085" y1="189.2031" y2="209.2031"/><polygon fill="#181818" points="727.1085,199.2031,731.1085,209.2031,735.1085,199.2031,731.1085,203.2031" style="stroke:#181818;stroke-width:1;"/><line style="stroke:#181818;stroke-width:1;" x1="731.1085" x2="731.1085" y1="785.9219" y2="805.9219"/><polygon fill="#181818" points="727.1085,795.9219,731.1085,805.9219,735.1085,795.9219,731.1085,799.9219" style="stroke:#181818;stroke-width:1;"/><!--SRC=[bP9DQyCm38Rl-HMYXv4UHk_9OUpICIYiz6Cm21GrLXiljXniXx9_FoLfCqWFPQV4rgj7UcL57Gt1qhXBMQ6Fy0nhxm85MBcpPaXfYxxnE4-I42MUPFj07YpnMGTTS2idHalm10s6S75UvKcs_jZkO64wGfua-WHfdwLq9DlMo2zpY1K9_Kl00AC0wwXFas3sYKOh37eiK71wBFrF4w5qja5Fy_mAMLyLS2H6Fm49QaiHn5lGZeVMtvKqtlridA5y4EqRXP70O8Y7guNklkDlo98zzlxlu9BvHao-o_KtNNGrSLvmLxXqhjP_iSCGwtF9189q9pRh4RQY2qOzHGroLleqDBiXfJsLlQqMHIu-P3wehEP5Gx4zOv2ldBxHzdEwgvKjnMe5vBtp1S_sjnV5YEquSmXei9hbawgBSK2tdXxXN-kMPH7OSV_OiWmFeHFaV_kz1mzOMMZN_080]--></g><style xmlns="http://www.w3.org/1999/xhtml" id="VMst0.06859376441997556">.select-text-inside-a-link{ -moz-user-select: text!important; }</style><script xmlns=""/></svg>