<svg xmlns="http://www.w3.org/2000/svg" xmlns:xlink="http://www.w3.org/1999/xlink" contentStyleType="text/css" data-diagram-type="ACTIVITY" height="1219px" preserveAspectRatio="none" style="width:920px;height:1219px;background:#FFFFFF;" version="1.1" viewBox="0 0 920 1219" width="920px" zoomAndPan="magnify"><title>Flowchart - Pengembalian Alat &amp; Perhitungan Denda (eSarpra)</title><defs/><g><g class="title" data-source-line="1"><text fill="#000000" font-family="sans-serif" font-size="14" font-weight="bold" lengthAdjust="spacing" textLength="497.5811" x="210.0015" y="32.9951">Flowchart - Pengembalian Alat &amp; Perhitungan Denda (eSarpra)</text></g><ellipse cx="571.7903" cy="57.2969" fill="#222222" rx="10" ry="10" style="stroke:#222222;stroke-width:1;"/><rect fill="#F1F1F1" height="47.9375" rx="12.5" ry="12.5" style="stroke:#181818;stroke-width:0.5;" width="199.7598" x="471.9104" y="87.2969"/><text fill="#000000" font-family="sans-serif" font-size="12" lengthAdjust="spacing" textLength="179.7598" x="481.9104" y="108.4355">Petugas membuka dashboard</text><text fill="#000000" font-family="sans-serif" font-size="12" lengthAdjust="spacing" textLength="56.3906" x="481.9104" y="122.4043">/ petugas</text><rect fill="#F1F1F1" height="33.9688" rx="12.5" ry="12.5" style="stroke:#181818;stroke-width:0.5;" width="182.1758" x="480.7024" y="155.2344"/><text fill="#000000" font-family="sans-serif" font-size="12" lengthAdjust="spacing" textLength="162.1758" x="490.7024" y="176.373">Pilih transaksi peminjaman</text><rect fill="#F1F1F1" height="33.9688" rx="12.5" ry="12.5" style="stroke:#181818;stroke-width:0.5;" width="178.7598" x="482.4104" y="209.2031"/><text fill="#000000" font-family="sans-serif" font-size="12" lengthAdjust="spacing" textLength="158.7598" x="492.4104" y="230.3418">POST /petugas/kembali/:id</text><rect fill="#F1F1F1" height="47.9375" rx="12.5" ry="12.5" style="stroke:#181818;stroke-width:0.5;" width="158.6211" x="492.4797" y="263.1719"/><text fill="#000000" font-family="sans-serif" font-size="12" lengthAdjust="spacing" textLength="138.6211" x="502.4797" y="284.3105">Load data peminjaman</text><text fill="#000000" font-family="sans-serif" font-size="12" lengthAdjust="spacing" textLength="89.1387" x="502.4797" y="298.2793">(+ user &amp; alat)</text><polygon fill="#F1F1F1" points="500.5105,331.1094,643.0701,331.1094,655.0701,343.1094,643.0701,355.1094,500.5105,355.1094,488.5105,343.1094,500.5105,331.1094" style="stroke:#181818;stroke-width:0.5;"/><text fill="#000000" font-family="sans-serif" font-size="11" lengthAdjust="spacing" textLength="142.5596" x="500.5105" y="346.9175">Status disetujui/dipinjam?</text><text fill="#000000" font-family="sans-serif" font-size="11" lengthAdjust="spacing" textLength="13.46" x="475.0505" y="340.5151">Ya</text><text fill="#000000" font-family="sans-serif" font-size="11" lengthAdjust="spacing" textLength="29.8687" x="655.0701" y="340.5151">Tidak</text><rect fill="#F1F1F1" height="75.875" rx="12.5" ry="12.5" style="stroke:#181818;stroke-width:0.5;" width="158.1406" x="232.1187" y="365.1094"/><text fill="#000000" font-family="sans-serif" font-size="12" lengthAdjust="spacing" textLength="87.4629" x="242.1187" y="386.248">Input petugas:</text><text fill="#000000" font-family="sans-serif" font-size="12" lengthAdjust="spacing" textLength="138.1406" x="242.1187" y="400.2168">kondisi_pengembalian,</text><text fill="#000000" font-family="sans-serif" font-size="12" lengthAdjust="spacing" textLength="98.6191" x="242.1187" y="414.1855">catatan_insiden,</text><text fill="#000000" font-family="sans-serif" font-size="12" lengthAdjust="spacing" textLength="81.8906" x="242.1187" y="428.1543">biaya_insiden</text><rect fill="#F1F1F1" height="61.9063" rx="12.5" ry="12.5" style="stroke:#181818;stroke-width:0.5;" width="216.4766" x="202.9507" y="460.9844"/><text fill="#000000" font-family="sans-serif" font-size="12" lengthAdjust="spacing" textLength="126.2813" x="212.9507" y="482.123">Update peminjaman:</text><text fill="#000000" font-family="sans-serif" font-size="12" lengthAdjust="spacing" textLength="139.1191" x="212.9507" y="496.0918">status = dikembalikan;</text><text fill="#000000" font-family="sans-serif" font-size="12" lengthAdjust="spacing" textLength="196.4766" x="212.9507" y="510.0605">tanggal_pengembalian = hari ini</text><polygon fill="#F1F1F1" points="267.283,542.8906,355.095,542.8906,367.095,554.8906,355.095,566.8906,267.283,566.8906,255.283,554.8906,267.283,542.8906" style="stroke:#181818;stroke-width:0.5;"/><text fill="#000000" font-family="sans-serif" font-size="11" lengthAdjust="spacing" textLength="87.812" x="267.283" y="558.6987">Kondisi normal?</text><text fill="#000000" font-family="sans-serif" font-size="11" lengthAdjust="spacing" textLength="13.46" x="241.823" y="552.2964">Ya</text><text fill="#000000" font-family="sans-serif" font-size="11" lengthAdjust="spacing" textLength="29.8687" x="367.095" y="552.2964">Tidak</text><rect fill="#F1F1F1" height="61.9063" rx="12.5" ry="12.5" style="stroke:#181818;stroke-width:0.5;" width="123.5176" x="87.3066" y="576.8906"/><text fill="#000000" font-family="sans-serif" font-size="12" lengthAdjust="spacing" textLength="74.0625" x="97.3066" y="598.0293">Update alat:</text><text fill="#000000" font-family="sans-serif" font-size="12" lengthAdjust="spacing" textLength="97.9512" x="97.3066" y="611.998">stok += jumlah;</text><text fill="#000000" font-family="sans-serif" font-size="12" lengthAdjust="spacing" textLength="103.5176" x="97.3066" y="625.9668">status = tersedia</text><polygon fill="#F1F1F1" points="433.6067,576.8906,513.0183,576.8906,525.0183,588.8906,513.0183,600.8906,433.6067,600.8906,421.6067,588.8906,433.6067,576.8906" style="stroke:#181818;stroke-width:0.5;"/><text fill="#000000" font-family="sans-serif" font-size="11" lengthAdjust="spacing" textLength="79.4116" x="433.6067" y="592.6987">Kondisi rusak?</text><text fill="#000000" font-family="sans-serif" font-size="11" lengthAdjust="spacing" textLength="13.46" x="408.1467" y="586.2964">Ya</text><text fill="#000000" font-family="sans-serif" font-size="11" lengthAdjust="spacing" textLength="35.0786" x="525.0183" y="586.2964">Hilang</text><rect fill="#F1F1F1" height="61.9063" rx="12.5" ry="12.5" style="stroke:#181818;stroke-width:0.5;" width="232.7891" x="240.8242" y="610.8906"/><text fill="#000000" font-family="sans-serif" font-size="12" lengthAdjust="spacing" textLength="74.0625" x="250.8242" y="632.0293">Update alat:</text><text fill="#000000" font-family="sans-serif" font-size="12" lengthAdjust="spacing" textLength="137.2148" x="250.8242" y="645.998">status = maintenance;</text><text fill="#000000" font-family="sans-serif" font-size="12" lengthAdjust="spacing" textLength="212.7891" x="250.8242" y="659.9668">kondisi = rusak_ringan/rusak_berat</text><rect fill="#F1F1F1" height="47.9375" rx="12.5" ry="12.5" style="stroke:#181818;stroke-width:0.5;" width="191.5859" x="493.6133" y="610.8906"/><text fill="#000000" font-family="sans-serif" font-size="12" lengthAdjust="spacing" textLength="74.0625" x="503.6133" y="632.0293">Update alat:</text><text fill="#000000" font-family="sans-serif" font-size="12" lengthAdjust="spacing" textLength="171.5859" x="503.6133" y="645.998">stok tidak ditambah kembali</text><polygon fill="#F1F1F1" points="473.3125,678.7969,485.3125,690.7969,473.3125,702.7969,461.3125,690.7969,473.3125,678.7969" style="stroke:#181818;stroke-width:0.5;"/><polygon fill="#F1F1F1" points="311.189,708.7969,323.189,720.7969,311.189,732.7969,299.189,720.7969,311.189,708.7969" style="stroke:#181818;stroke-width:0.5;"/><rect fill="#F1F1F1" height="47.9375" rx="12.5" ry="12.5" style="stroke:#181818;stroke-width:0.5;" width="164.1699" x="229.104" y="752.7969"/><text fill="#000000" font-family="sans-serif" font-size="12" lengthAdjust="spacing" textLength="144.1699" x="239.104" y="773.9355">Hitung denda terlambat</text><text fill="#000000" font-family="sans-serif" font-size="12" lengthAdjust="spacing" textLength="98.3906" x="239.104" y="787.9043">+ denda insiden</text><rect fill="#F1F1F1" height="75.875" rx="12.5" ry="12.5" style="stroke:#181818;stroke-width:0.5;" width="126.4648" x="247.9565" y="820.7344"/><text fill="#000000" font-family="sans-serif" font-size="12" lengthAdjust="spacing" textLength="90.6504" x="257.9565" y="841.873">Simpan denda:</text><text fill="#000000" font-family="sans-serif" font-size="12" lengthAdjust="spacing" textLength="106.4648" x="257.9565" y="855.8418">denda_terlambat,</text><text fill="#000000" font-family="sans-serif" font-size="12" lengthAdjust="spacing" textLength="90.5215" x="257.9565" y="869.8105">denda_insiden,</text><text fill="#000000" font-family="sans-serif" font-size="12" lengthAdjust="spacing" textLength="37.5762" x="257.9565" y="883.7793">denda</text><polygon fill="#F1F1F1" points="263.9153,916.6094,358.4626,916.6094,370.4626,928.6094,358.4626,940.6094,263.9153,940.6094,251.9153,928.6094,263.9153,916.6094" style="stroke:#181818;stroke-width:0.5;"/><text fill="#000000" font-family="sans-serif" font-size="11" lengthAdjust="spacing" textLength="94.5474" x="263.9153" y="932.4175">Total denda &gt; 0?</text><text fill="#000000" font-family="sans-serif" font-size="11" lengthAdjust="spacing" textLength="13.46" x="238.4553" y="926.0151">Ya</text><text fill="#000000" font-family="sans-serif" font-size="11" lengthAdjust="spacing" textLength="29.8687" x="370.4626" y="926.0151">Tidak</text><rect fill="#F1F1F1" height="33.9688" rx="12.5" ry="12.5" style="stroke:#181818;stroke-width:0.5;" width="301.6484" x="11" y="950.6094"/><text fill="#000000" font-family="sans-serif" font-size="12" lengthAdjust="spacing" textLength="281.6484" x="21" y="971.748">Set status_pembayaran_denda = belum_bayar</text><rect fill="#F1F1F1" height="33.9688" rx="12.5" ry="12.5" style="stroke:#181818;stroke-width:0.5;" width="255.8105" x="332.6484" y="950.6094"/><text fill="#000000" font-family="sans-serif" font-size="12" lengthAdjust="spacing" textLength="235.8105" x="342.6484" y="971.748">Set status_pembayaran_denda = lunas</text><polygon fill="#F1F1F1" points="311.189,990.5781,323.189,1002.5781,311.189,1014.5781,299.189,1002.5781,311.189,990.5781" style="stroke:#181818;stroke-width:0.5;"/><rect fill="#F1F1F1" height="47.9375" rx="12.5" ry="12.5" style="stroke:#181818;stroke-width:0.5;" width="196.127" x="213.1255" y="1034.5781"/><text fill="#000000" font-family="sans-serif" font-size="12" lengthAdjust="spacing" textLength="73.5879" x="223.1255" y="1055.7168">LogAktivitas</text><text fill="#000000" font-family="sans-serif" font-size="12" lengthAdjust="spacing" textLength="176.127" x="223.1255" y="1069.6855">"Konfirmasi pengembalian..."</text><rect fill="#F1F1F1" height="33.9688" rx="12.5" ry="12.5" style="stroke:#181818;stroke-width:0.5;" width="126.6816" x="247.8481" y="1102.5156"/><text fill="#000000" font-family="sans-serif" font-size="12" lengthAdjust="spacing" textLength="106.6816" x="257.8481" y="1123.6543">Redirect /petugas</text><rect fill="#F1F1F1" height="47.9375" rx="12.5" ry="12.5" style="stroke:#181818;stroke-width:0.5;" width="214.3848" x="695.1992" y="365.1094"/><text fill="#000000" font-family="sans-serif" font-size="12" lengthAdjust="spacing" textLength="82.002" x="705.1992" y="386.248">Tolak request</text><text fill="#000000" font-family="sans-serif" font-size="12" lengthAdjust="spacing" textLength="194.3848" x="705.1992" y="400.2168">"Status peminjaman tidak valid"</text><polygon fill="#F1F1F1" points="571.7903,1142.4844,583.7903,1154.4844,571.7903,1166.4844,559.7903,1154.4844,571.7903,1142.4844" style="stroke:#181818;stroke-width:0.5;"/><ellipse cx="571.7903" cy="1197.4844" fill="none" rx="11" ry="11" style="stroke:#222222;stroke-width:1;"/><ellipse cx="571.7903" cy="1197.4844" fill="#222222" rx="6" ry="6" style="stroke:#222222;stroke-width:1;"/><line style="stroke:#181818;stroke-width:1;" x1="571.7903" x2="571.7903" y1="67.2969" y2="87.2969"/><polygon fill="#181818" points="567.7903,77.2969,571.7903,87.2969,575.7903,77.2969,571.7903,81.2969" style="stroke:#181818;stroke-width:1;"/><line style="stroke:#181818;stroke-width:1;" x1="571.7903" x2="571.7903" y1="135.2344" y2="155.2344"/><polygon fill="#181818" points="567.7903,145.2344,571.7903,155.2344,575.7903,145.2344,571.7903,149.2344" style="stroke:#181818;stroke-width:1;"/><line style="stroke:#181818;stroke-width:1;" x1="571.7903" x2="571.7903" y1="189.2031" y2="209.2031"/><polygon fill="#181818" points="567.7903,199.2031,571.7903,209.2031,575.7903,199.2031,571.7903,203.2031" style="stroke:#181818;stroke-width:1;"/><line style="stroke:#181818;stroke-width:1;" x1="571.7903" x2="571.7903" y1="243.1719" y2="263.1719"/><polygon fill="#181818" points="567.7903,253.1719,571.7903,263.1719,575.7903,253.1719,571.7903,257.1719" style="stroke:#181818;stroke-width:1;"/><line style="stroke:#181818;stroke-width:1;" x1="311.189" x2="311.189" y1="440.9844" y2="460.9844"/><polygon fill="#181818" points="307.189,450.9844,311.189,460.9844,315.189,450.9844,311.189,454.9844" style="stroke:#181818;stroke-width:1;"/><line style="stroke:#181818;stroke-width:1;" x1="421.6067" x2="357.2188" y1="588.8906" y2="588.8906"/><line style="stroke:#181818;stroke-width:1;" x1="357.2188" x2="357.2188" y1="588.8906" y2="610.8906"/><polygon fill="#181818" points="353.2188,600.8906,357.2188,610.8906,361.2188,600.8906,357.2188,604.8906" style="stroke:#181818;stroke-width:1;"/><line style="stroke:#181818;stroke-width:1;" x1="525.0183" x2="589.4063" y1="588.8906" y2="588.8906"/><line style="stroke:#181818;stroke-width:1;" x1="589.4063" x2="589.4063" y1="588.8906" y2="610.8906"/><polygon fill="#181818" points="585.4063,600.8906,589.4063,610.8906,593.4063,600.8906,589.4063,604.8906" style="stroke:#181818;stroke-width:1;"/><line style="stroke:#181818;stroke-width:1;" x1="357.2188" x2="357.2188" y1="672.7969" y2="690.7969"/><line style="stroke:#181818;stroke-width:1;" x1="357.2188" x2="461.3125" y1="690.7969" y2="690.7969"/><polygon fill="#181818" points="451.3125,686.7969,461.3125,690.7969,451.3125,694.7969,455.3125,690.7969" style="stroke:#181818;stroke-width:1;"/><line style="stroke:#181818;stroke-width:1;" x1="589.4063" x2="589.4063" y1="658.8281" y2="690.7969"/><line style="stroke:#181818;stroke-width:1;" x1="589.4063" x2="485.3125" y1="690.7969" y2="690.7969"/><polygon fill="#181818" points="495.3125,686.7969,485.3125,690.7969,495.3125,694.7969,491.3125,690.7969" style="stroke:#181818;stroke-width:1;"/><line style="stroke:#181818;stroke-width:1;" x1="255.283" x2="149.0654" y1="554.8906" y2="554.8906"/><line style="stroke:#181818;stroke-width:1;" x1="149.0654" x2="149.0654" y1="554.8906" y2="576.8906"/><polygon fill="#181818" points="145.0654,566.8906,149.0654,576.8906,153.0654,566.8906,149.0654,570.8906" style="stroke:#181818;stroke-width:1;"/><line style="stroke:#181818;stroke-width:1;" x1="367.095" x2="473.3125" y1="554.8906" y2="554.8906"/><line style="stroke:#181818;stroke-width:1;" x1="473.3125" x2="473.3125" y1="554.8906" y2="576.8906"/><polygon fill="#181818" points="469.3125,566.8906,473.3125,576.8906,477.3125,566.8906,473.3125,570.8906" style="stroke:#181818;stroke-width:1;"/><line style="stroke:#181818;stroke-width:1;" x1="149.0654" x2="149.0654" y1="638.7969" y2="720.7969"/><line style="stroke:#181818;stroke-width:1;" x1="149.0654" x2="299.189" y1="720.7969" y2="720.7969"/><polygon fill="#181818" points="289.189,716.7969,299.189,720.7969,289.189,724.7969,293.189,720.7969" style="stroke:#181818;stroke-width:1;"/><line style="stroke:#181818;stroke-width:1;" x1="473.3125" x2="473.3125" y1="702.7969" y2="720.7969"/><line style="stroke:#181818;stroke-width:1;" x1="473.3125" x2="323.189" y1="720.7969" y2="720.7969"/><polygon fill="#181818" points="333.189,716.7969,323.189,720.7969,333.189,724.7969,329.189,720.7969" style="stroke:#181818;stroke-width:1;"/><line style="stroke:#181818;stroke-width:1;" x1="311.189" x2="311.189" y1="522.8906" y2="542.8906"/><polygon fill="#181818" points="307.189,532.8906,311.189,542.8906,315.189,532.8906,311.189,536.8906" style="stroke:#181818;stroke-width:1;"/><line style="stroke:#181818;stroke-width:1;" x1="311.189" x2="311.189" y1="732.7969" y2="752.7969"/><polygon fill="#181818" points="307.189,742.7969,311.189,752.7969,315.189,742.7969,311.189,746.7969" style="stroke:#181818;stroke-width:1;"/><line style="stroke:#181818;stroke-width:1;" x1="311.189" x2="311.189" y1="800.7344" y2="820.7344"/><polygon fill="#181818" points="307.189,810.7344,311.189,820.7344,315.189,810.7344,311.189,814.7344" style="stroke:#181818;stroke-width:1;"/><line style="stroke:#181818;stroke-width:1;" x1="251.9153" x2="161.8242" y1="928.6094" y2="928.6094"/><line style="stroke:#181818;stroke-width:1;" x1="161.8242" x2="161.8242" y1="928.6094" y2="950.6094"/><polygon fill="#181818" points="157.8242,940.6094,161.8242,950.6094,165.8242,940.6094,161.8242,944.6094" style="stroke:#181818;stroke-width:1;"/><line style="stroke:#181818;stroke-width:1;" x1="370.4626" x2="460.5537" y1="928.6094" y2="928.6094"/><line style="stroke:#181818;stroke-width:1;" x1="460.5537" x2="460.5537" y1="928.6094" y2="950.6094"/><polygon fill="#181818" points="456.5537,940.6094,460.5537,950.6094,464.5537,940.6094,460.5537,944.6094" style="stroke:#181818;stroke-width:1;"/><line style="stroke:#181818;stroke-width:1;" x1="161.8242" x2="161.8242" y1="984.5781" y2="1002.5781"/><line style="stroke:#181818;stroke-width:1;" x1="161.8242" x2="299.189" y1="1002.5781" y2="1002.5781"/><polygon fill="#181818" points="289.189,998.5781,299.189,1002.5781,289.189,1006.5781,293.189,1002.5781" style="stroke:#181818;stroke-width:1;"/><line style="stroke:#181818;stroke-width:1;" x1="460.5537" x2="460.5537" y1="984.5781" y2="1002.5781"/><line style="stroke:#181818;stroke-width:1;" x1="460.5537" x2="323.189" y1="1002.5781" y2="1002.5781"/><polygon fill="#181818" points="333.189,998.5781,323.189,1002.5781,333.189,1006.5781,329.189,1002.5781" style="stroke:#181818;stroke-width:1;"/><line style="stroke:#181818;stroke-width:1;" x1="311.189" x2="311.189" y1="896.6094" y2="916.6094"/><polygon fill="#181818" points="307.189,906.6094,311.189,916.6094,315.189,906.6094,311.189,910.6094" style="stroke:#181818;stroke-width:1;"/><line style="stroke:#181818;stroke-width:1;" x1="311.189" x2="311.189" y1="1014.5781" y2="1034.5781"/><polygon fill="#181818" points="307.189,1024.5781,311.189,1034.5781,315.189,1024.5781,311.189,1028.5781" style="stroke:#181818;stroke-width:1;"/><line style="stroke:#181818;stroke-width:1;" x1="311.189" x2="311.189" y1="1082.5156" y2="1102.5156"/><polygon fill="#181818" points="307.189,1092.5156,311.189,1102.5156,315.189,1092.5156,311.189,1096.5156" style="stroke:#181818;stroke-width:1;"/><line style="stroke:#181818;stroke-width:1;" x1="488.5105" x2="311.189" y1="343.1094" y2="343.1094"/><line style="stroke:#181818;stroke-width:1;" x1="311.189" x2="311.189" y1="343.1094" y2="365.1094"/><polygon fill="#181818" points="307.189,355.1094,311.189,365.1094,315.189,355.1094,311.189,359.1094" style="stroke:#181818;stroke-width:1;"/><line style="stroke:#181818;stroke-width:1;" x1="655.0701" x2="802.3916" y1="343.1094" y2="343.1094"/><line style="stroke:#181818;stroke-width:1;" x1="802.3916" x2="802.3916" y1="343.1094" y2="365.1094"/><polygon fill="#181818" points="798.3916,355.1094,802.3916,365.1094,806.3916,355.1094,802.3916,359.1094" style="stroke:#181818;stroke-width:1;"/><line style="stroke:#181818;stroke-width:1;" x1="311.189" x2="311.189" y1="1136.4844" y2="1154.4844"/><line style="stroke:#181818;stroke-width:1;" x1="311.189" x2="559.7903" y1="1154.4844" y2="1154.4844"/><polygon fill="#181818" points="549.7903,1150.4844,559.7903,1154.4844,549.7903,1158.4844,553.7903,1154.4844" style="stroke:#181818;stroke-width:1;"/><line style="stroke:#181818;stroke-width:1;" x1="802.3916" x2="802.3916" y1="413.0469" y2="1154.4844"/><line style="stroke:#181818;stroke-width:1;" x1="802.3916" x2="583.7903" y1="1154.4844" y2="1154.4844"/><polygon fill="#181818" points="593.7903,1150.4844,583.7903,1154.4844,593.7903,1158.4844,589.7903,1154.4844" style="stroke:#181818;stroke-width:1;"/><line style="stroke:#181818;stroke-width:1;" x1="571.7903" x2="571.7903" y1="311.1094" y2="331.1094"/><polygon fill="#181818" points="567.7903,321.1094,571.7903,331.1094,575.7903,321.1094,571.7903,325.1094" style="stroke:#181818;stroke-width:1;"/><line style="stroke:#181818;stroke-width:1;" x1="571.7903" x2="571.7903" y1="1166.4844" y2="1186.4844"/><polygon fill="#181818" points="567.7903,1176.4844,571.7903,1186.4844,575.7903,1176.4844,571.7903,1180.4844" style="stroke:#181818;stroke-width:1;"/><!--SRC=[XLF1Qjj04BthAuOSYerJksSBjmHAIMcXeNOF1O4OUzVIMAkHkZjAoTztj99jDKdfIMXsvxqtxyqAYRFmoJM_3oLwWRVmOBcmzHuT8SETGu4tMlCbISU5bZvQDWWpkqNVUfmdIH1jJDOFLhe20zJQt5K81aEvRz2RZ5VG3eUfNYD79OX73bW5qfEQ-8GrSd_uRRk3rNXvLGqoLcioUlQrGQEWWfEMZ6SBw8BrgX5LwZnD4Zh2R2ieNG13GQ5E7QqCjR7bmnoaj0opdweSOFsPsqxEwjOPLmrh4-Njn8JRZ0zAAyWvSI1Z-ygUy0dF_saFzQDLSNOYJk72e6EZIiPXAfqpOyKg2dH_qUWjJO20c7GAW7wEBuCSuCRNw9w9ltBseqUsfeB51avTxR1C9_HYVR26i1TgNR0msv71Qa2P4lbEKtd1ymhJ25mZiLX6FjZqufxM8qxkgT-OrV2pjnubZNY3X7joQiC_6NGMwKMgTuBgKGcZXIE6KXsJyxSFu3vkA9YudpgnwxiauyLOceQrfRfLo-E1iiLlVkcvFLUkUSV_T8nbrmYw4VKzl7kPozOA31vfn8huXBhl-T2mWRrrNPt7wgk1_AVTTTo_fAi5-ZIAkqheKOqA6Tzec4VIXOclwxfWo-No9Wx_NLV1suDSNbgQFDEmtZLEdVVsLsU3MdWpFgZhSe_PF2goKTGn1Ksj_GC0]--></g></svg>